<svg xmlns="http://www.w3.org/2000/svg" xmlns:xlink="http://www.w3.org/1999/xlink" width="1920" zoomAndPan="magnify" viewBox="0 0 1440 809.999993" height="1080" preserveAspectRatio="xMidYMid meet" version="1.0"><defs><clipPath id="556c661939"><path d="M 370 121.046875 L 1042 121.046875 L 1042 337 L 370 337 Z M 370 121.046875 " clip-rule="nonzero"/></clipPath><clipPath id="903d251456"><path d="M 370 121.046875 L 1042 121.046875 L 1042 318 L 370 318 Z M 370 121.046875 " clip-rule="nonzero"/></clipPath><clipPath id="20981caec0"><path d="M 327.417969 688 L 1084 688 L 1084 704 L 327.417969 704 Z M 327.417969 688 " clip-rule="nonzero"/></clipPath><clipPath id="dc5ffe8a3f"><path d="M 327.417969 703 L 1084 703 L 1084 711.296875 L 327.417969 711.296875 Z M 327.417969 703 " clip-rule="nonzero"/></clipPath></defs><rect x="-144" width="1728" fill="#ffffff" y="-80.999999" height="971.999992" fill-opacity="1"/><rect x="-144" width="1728" fill="#ffffff" y="-80.999999" height="971.999992" fill-opacity="1"/><path fill="#fee5ab" d="M 407.09375 654.964844 L 1004.503906 654.964844 L 1004.503906 323.867188 L 407.09375 323.867188 Z M 407.09375 654.964844 " fill-opacity="1" fill-rule="nonzero"/><path fill="#e5cf9c" d="M 973.117188 553.433594 L 805.550781 553.433594 L 805.550781 526.851562 L 810.324219 526.851562 L 810.324219 424.316406 L 968.347656 424.316406 L 968.347656 526.851562 L 973.117188 526.851562 L 973.117188 553.433594 M 812.292969 533.589844 L 812.292969 546.691406 L 966.378906 546.691406 L 966.378906 540.101562 L 970.34375 540.101562 L 970.34375 533.589844 L 961.613281 533.589844 L 961.613281 431.050781 L 817.0625 431.050781 L 817.0625 533.589844 L 812.292969 533.589844 " fill-opacity="1" fill-rule="nonzero"/><path fill="#feedc3" d="M 407.09375 654.910156 L 431.539062 654.910156 L 431.539062 338.78125 L 407.09375 338.78125 Z M 407.09375 654.910156 " fill-opacity="1" fill-rule="nonzero"/><path fill="#fcdb9a" d="M 407.09375 305.304688 L 407.09375 323.867188 L 1004.5 323.867188 L 1004.5 305.304688 L 705.796875 146.96875 L 407.09375 305.304688 " fill-opacity="1" fill-rule="nonzero"/><path fill="#999773" d="M 383.445312 688.089844 L 1028.148438 688.089844 L 1028.148438 654.90625 L 383.445312 654.90625 Z M 383.445312 688.089844 " fill-opacity="1" fill-rule="nonzero"/><path fill="#a9a484" d="M 1028.148438 671.503906 L 970.054688 671.503906 L 970.054688 660.429688 L 1028.148438 660.429688 L 1028.148438 671.503906 M 963.015625 671.503906 L 880.628906 671.503906 L 880.628906 660.429688 L 963.015625 660.429688 L 963.015625 671.503906 M 873.585938 671.503906 L 538.007812 671.503906 L 538.007812 660.429688 L 873.585938 660.429688 L 873.585938 671.503906 M 530.96875 671.503906 L 448.578125 671.503906 L 448.578125 660.429688 L 530.96875 660.429688 L 530.96875 671.503906 M 441.535156 671.503906 L 383.445312 671.503906 L 383.445312 660.429688 L 441.535156 660.429688 L 441.535156 671.503906 " fill-opacity="1" fill-rule="nonzero"/><path fill="#e5cf9c" d="M 1004.5 654.910156 L 973.117188 654.910156 L 973.117188 338.78125 L 407.09375 338.78125 L 407.09375 323.867188 L 1004.5 323.867188 L 1004.5 654.910156 " fill-opacity="1" fill-rule="nonzero"/><path fill="#e3c68c" d="M 1004.5 323.867188 L 973.117188 323.867188 L 972.625 315.382812 L 705.796875 174.199219 L 426 323.867188 L 407.09375 323.867188 L 407.09375 318.144531 L 705.796875 159.808594 L 1004.5 318.144531 L 1004.5 323.867188 " fill-opacity="1" fill-rule="nonzero"/><path fill="#ffffff" d="M 773.929688 410.367188 L 637.664062 410.367188 L 637.664062 654.910156 L 773.929688 654.910156 L 773.929688 410.367188 " fill-opacity="1" fill-rule="nonzero"/><path fill="#f49a5d" d="M 646.871094 654.910156 L 646.871094 421.550781 L 764.726562 421.550781 L 764.726562 654.910156 L 646.871094 654.910156 " fill-opacity="1" fill-rule="nonzero"/><path fill="#feb07b" d="M 697.4375 494.632812 L 658.011719 494.632812 C 656.082031 492.707031 655.003906 491.628906 653.078125 489.703125 L 653.078125 432.339844 C 655.003906 430.414062 656.082031 429.335938 658.011719 427.40625 L 697.4375 427.40625 C 699.363281 429.335938 700.445312 430.414062 702.367188 432.339844 L 702.367188 489.703125 C 700.445312 491.628906 699.363281 492.707031 697.4375 494.632812 " fill-opacity="1" fill-rule="nonzero"/><path fill="#feb07b" d="M 753.410156 494.632812 L 713.980469 494.632812 C 712.054688 492.707031 710.976562 491.628906 709.050781 489.703125 L 709.050781 432.339844 C 710.976562 430.414062 712.054688 429.335938 713.980469 427.40625 L 753.410156 427.40625 C 755.335938 429.335938 756.414062 430.414062 758.339844 432.339844 L 758.339844 489.703125 C 756.414062 491.628906 755.335938 492.707031 753.410156 494.632812 " fill-opacity="1" fill-rule="nonzero"/><path fill="#feb07b" d="M 697.4375 570.335938 L 658.011719 570.335938 C 656.082031 568.40625 655.003906 567.328125 653.078125 565.40625 L 653.078125 508.042969 C 655.003906 506.113281 656.082031 505.035156 658.011719 503.109375 L 697.4375 503.109375 C 699.363281 505.035156 700.445312 506.113281 702.367188 508.042969 L 702.367188 565.40625 C 700.445312 567.328125 699.363281 568.40625 697.4375 570.335938 " fill-opacity="1" fill-rule="nonzero"/><path fill="#feb07b" d="M 753.410156 570.335938 L 713.980469 570.335938 C 712.054688 568.40625 710.976562 567.328125 709.050781 565.40625 L 709.050781 508.042969 C 710.976562 506.113281 712.054688 505.035156 713.980469 503.109375 L 753.410156 503.109375 C 755.335938 505.035156 756.414062 506.113281 758.339844 508.042969 L 758.339844 565.40625 C 756.414062 567.328125 755.335938 568.40625 753.410156 570.335938 " fill-opacity="1" fill-rule="nonzero"/><path fill="#feb07b" d="M 697.4375 645.003906 L 658.011719 645.003906 C 656.082031 643.074219 655.003906 641.996094 653.078125 640.074219 L 653.078125 582.707031 C 655.003906 580.789062 656.082031 579.707031 658.011719 577.78125 L 697.4375 577.78125 C 699.363281 579.707031 700.445312 580.789062 702.367188 582.707031 L 702.367188 640.074219 C 700.445312 641.996094 699.363281 643.074219 697.4375 645.003906 " fill-opacity="1" fill-rule="nonzero"/><path fill="#feb07b" d="M 753.410156 645.003906 L 713.980469 645.003906 C 712.054688 643.074219 710.976562 641.996094 709.050781 640.074219 L 709.050781 582.707031 C 710.976562 580.789062 712.054688 579.707031 713.980469 577.78125 L 753.410156 577.78125 C 755.335938 579.707031 756.414062 580.789062 758.339844 582.707031 L 758.339844 640.074219 C 756.414062 641.996094 755.335938 643.074219 753.410156 645.003906 " fill-opacity="1" fill-rule="nonzero"/><path fill="#e6e7e8" d="M 802.433594 677.027344 L 609.160156 677.027344 L 609.160156 688.089844 L 802.433594 688.089844 L 802.433594 677.027344 " fill-opacity="1" fill-rule="nonzero"/><path fill="#f1f2f2" d="M 802.433594 677.027344 L 609.160156 677.027344 L 609.160156 681.160156 L 802.433594 681.160156 L 802.433594 677.027344 " fill-opacity="1" fill-rule="nonzero"/><path fill="#e6e7e8" d="M 790.191406 665.964844 L 621.402344 665.964844 L 621.402344 677.027344 L 790.191406 677.027344 L 790.191406 665.964844 " fill-opacity="1" fill-rule="nonzero"/><path fill="#f1f2f2" d="M 790.191406 665.964844 L 621.402344 665.964844 L 621.402344 669.851562 L 790.191406 669.851562 L 790.191406 665.964844 " fill-opacity="1" fill-rule="nonzero"/><path fill="#e6e7e8" d="M 776.992188 654.910156 L 634.601562 654.910156 L 634.601562 665.964844 L 776.992188 665.964844 L 776.992188 654.910156 " fill-opacity="1" fill-rule="nonzero"/><path fill="#f1f2f2" d="M 776.992188 654.910156 L 634.601562 654.910156 L 634.601562 659.035156 L 776.992188 659.035156 L 776.992188 654.910156 " fill-opacity="1" fill-rule="nonzero"/><path fill="#f46c42" d="M 571 192.503906 L 571 146.96875 L 470.464844 146.96875 L 470.464844 245.796875 L 571 192.503906 " fill-opacity="1" fill-rule="nonzero"/><g clip-path="url(#556c661939)"><path fill="#999773" d="M 705.796875 121.054688 L 370.515625 298.773438 L 370.515625 336.824219 L 371.851562 336.824219 L 705.796875 159.808594 L 1039.742188 336.824219 L 1041.078125 336.824219 L 1041.078125 298.773438 L 705.796875 121.054688 " fill-opacity="1" fill-rule="nonzero"/></g><g clip-path="url(#903d251456)"><path fill="#a8a588" d="M 705.796875 121.054688 L 370.519531 298.773438 L 370.519531 317.921875 L 705.796875 140.195312 L 1041.078125 317.921875 L 1041.078125 298.773438 L 705.796875 121.054688 " fill-opacity="1" fill-rule="nonzero"/></g><path fill="#e6e7e8" d="M 571 192.503906 L 571 146.96875 L 470.464844 146.96875 L 571 146.96875 L 571 192.503906 " fill-opacity="1" fill-rule="nonzero"/><path fill="#dc623c" d="M 554.503906 201.246094 L 554.503906 166.078125 L 470.464844 166.078125 L 470.464844 146.96875 L 571 146.96875 L 571 192.503906 L 554.503906 201.246094 " fill-opacity="1" fill-rule="nonzero"/><path fill="#8a8969" d="M 554.503906 201.246094 L 571 192.503906 L 554.503906 201.246094 " fill-opacity="1" fill-rule="nonzero"/><path fill="#98957c" d="M 554.503906 201.246094 L 571 192.503906 L 554.503906 201.246094 " fill-opacity="1" fill-rule="nonzero"/><path fill="#f46c42" d="M 584.546875 157.496094 L 457.429688 157.496094 C 455.613281 157.496094 454.140625 156.027344 454.140625 154.207031 L 454.140625 138.996094 C 454.140625 137.183594 455.613281 135.707031 457.429688 135.707031 L 584.546875 135.707031 C 586.363281 135.707031 587.835938 137.183594 587.835938 138.996094 L 587.835938 154.207031 C 587.835938 156.027344 586.363281 157.496094 584.546875 157.496094 " fill-opacity="1" fill-rule="nonzero"/><path fill="#e5cf9c" d="M 611.933594 553.433594 L 444.371094 553.433594 L 444.371094 526.851562 L 449.144531 526.851562 L 449.144531 424.316406 L 607.164062 424.316406 L 607.164062 526.851562 L 611.933594 526.851562 L 611.933594 553.433594 M 460.503906 516.371094 L 460.503906 531.363281 L 595.800781 531.363281 L 595.800781 516.371094 C 596.097656 516.371094 596.386719 516.375 596.679688 516.375 C 597.410156 516.375 598.136719 516.367188 598.859375 516.355469 L 598.859375 432.140625 L 549.363281 432.140625 C 549.441406 432.824219 549.546875 433.570312 549.6875 434.367188 L 506.570312 434.367188 C 506.710938 433.570312 506.816406 432.824219 506.890625 432.140625 L 457.394531 432.140625 L 457.394531 516.355469 C 458.117188 516.367188 458.847656 516.375 459.574219 516.375 C 459.886719 516.375 460.195312 516.371094 460.503906 516.371094 " fill-opacity="1" fill-rule="nonzero"/><path fill="#5b4c49" d="M 821.683594 531.363281 L 956.984375 531.363281 L 956.984375 434.367188 L 821.683594 434.367188 Z M 821.683594 531.363281 " fill-opacity="1" fill-rule="nonzero"/><path fill="#82716d" d="M 841 522.480469 L 828.582031 522.480469 L 828.582031 516.007812 C 833.191406 515.503906 836.867188 514.410156 837.734375 512.277344 C 838.332031 510.804688 838.574219 507.480469 838.582031 503.183594 L 883.460938 447.007812 L 883.460938 469.328125 L 841 522.480469 " fill-opacity="1" fill-rule="nonzero"/><path fill="#82716d" d="M 837.554688 480.765625 C 837.195312 475.917969 836.800781 471.351562 836.472656 467.757812 L 836.527344 467.6875 C 855.425781 460.539062 863.125 449.027344 866.222656 440.171875 L 869.980469 440.171875 L 837.554688 480.765625 " fill-opacity="1" fill-rule="nonzero"/><path fill="#82716d" d="M 910.816406 522.480469 L 898.398438 522.480469 L 898.398438 515.707031 L 938.074219 466.03125 C 939.375 466.613281 940.730469 467.175781 942.152344 467.710938 C 941.730469 472.339844 941.195312 478.59375 940.769531 484.984375 L 910.816406 522.480469 " fill-opacity="1" fill-rule="nonzero"/><path fill="#82716d" d="M 898.398438 491.996094 L 898.398438 477.636719 L 918.964844 451.894531 C 920.707031 454.054688 922.808594 456.207031 925.332031 458.277344 L 898.398438 491.996094 " fill-opacity="1" fill-rule="nonzero"/><path fill="#fc8465" d="M 818.578125 516.355469 C 826.984375 516.511719 836.28125 515.839844 837.734375 512.277344 C 840.464844 505.558594 835.742188 460.207031 835.742188 460.207031 C 834.792969 446.234375 832.242188 437.542969 829.277344 432.140625 L 818.578125 432.140625 L 818.578125 516.355469 " fill-opacity="1" fill-rule="nonzero"/><path fill="#fc7256" d="M 868.074219 432.140625 L 818.578125 432.140625 L 818.578125 472.398438 C 859.839844 465.46875 866.957031 442.089844 868.074219 432.140625 " fill-opacity="1" fill-rule="nonzero"/><path fill="#ee7d60" d="M 832.664062 513.792969 C 832.664062 513.792969 836.148438 506.699219 835.714844 497.863281 C 835.277344 489.027344 835.214844 472.398438 835.214844 472.398438 C 835.214844 472.398438 838.265625 504.398438 836.710938 508.753906 C 835.152344 513.109375 832.664062 513.792969 832.664062 513.792969 " fill-opacity="1" fill-rule="nonzero"/><path fill="#ee6c52" d="M 827.652344 467.800781 C 827.652344 467.800781 843.460938 460.460938 850.929688 453.988281 C 858.398438 447.515625 864 440.171875 864 440.171875 C 864 440.171875 859.019531 452.242188 848.191406 458.964844 C 837.363281 465.6875 827.652344 467.800781 827.652344 467.800781 " fill-opacity="1" fill-rule="nonzero"/><path fill="#ee6c52" d="M 830.097656 457.074219 C 830.097656 457.074219 838.605469 453.117188 842.621094 449.636719 C 846.640625 446.152344 849.65625 442.199219 849.65625 442.199219 C 849.65625 442.199219 846.980469 448.699219 841.148438 452.316406 C 835.320312 455.933594 830.097656 457.074219 830.097656 457.074219 " fill-opacity="1" fill-rule="nonzero"/><path fill="#fc8465" d="M 960.042969 516.355469 C 951.628906 516.511719 942.339844 515.839844 940.882812 512.277344 C 938.152344 505.558594 942.875 460.207031 942.875 460.207031 C 943.824219 446.234375 946.378906 437.542969 949.335938 432.140625 L 960.042969 432.140625 L 960.042969 516.355469 " fill-opacity="1" fill-rule="nonzero"/><path fill="#fc7256" d="M 910.546875 432.140625 L 960.042969 432.140625 L 960.042969 472.398438 C 918.78125 465.46875 911.660156 442.089844 910.546875 432.140625 " fill-opacity="1" fill-rule="nonzero"/><path fill="#ee7d60" d="M 945.957031 513.792969 C 945.957031 513.792969 943.464844 513.109375 941.910156 508.753906 C 940.355469 504.398438 943.402344 472.398438 943.402344 472.398438 C 943.402344 472.398438 943.34375 489.027344 942.902344 497.863281 C 942.46875 506.699219 945.957031 513.792969 945.957031 513.792969 " fill-opacity="1" fill-rule="nonzero"/><path fill="#ee6c52" d="M 950.964844 467.800781 C 950.964844 467.800781 941.257812 465.6875 930.425781 458.964844 C 919.597656 452.242188 914.617188 440.171875 914.617188 440.171875 C 914.617188 440.171875 920.21875 447.515625 927.6875 453.988281 C 935.15625 460.460938 950.964844 467.800781 950.964844 467.800781 " fill-opacity="1" fill-rule="nonzero"/><path fill="#ee6c52" d="M 948.523438 457.074219 C 948.523438 457.074219 943.296875 455.933594 937.472656 452.316406 C 931.640625 448.699219 928.960938 442.199219 928.960938 442.199219 C 928.960938 442.199219 931.972656 446.152344 935.996094 449.636719 C 940.011719 453.117188 948.523438 457.074219 948.523438 457.074219 " fill-opacity="1" fill-rule="nonzero"/><path fill="#f1f2f2" d="M 953.222656 527.117188 L 893.285156 527.117188 L 893.285156 438.757812 L 953.222656 438.757812 L 953.222656 527.117188 M 885.382812 527.117188 L 825.449219 527.117188 L 825.449219 438.757812 L 885.382812 438.757812 L 885.382812 527.117188 M 817.0625 431.050781 L 817.0625 534.675781 L 961.613281 534.675781 L 961.613281 431.050781 L 817.0625 431.050781 " fill-opacity="1" fill-rule="nonzero"/><path fill="#999773" d="M 812.292969 546.691406 L 966.378906 546.691406 L 966.378906 533.589844 L 812.292969 533.589844 Z M 812.292969 546.691406 " fill-opacity="1" fill-rule="nonzero"/><path fill="#5b4c49" d="M 460.503906 531.363281 L 595.800781 531.363281 L 595.800781 434.367188 L 460.503906 434.367188 Z M 460.503906 531.363281 " fill-opacity="1" fill-rule="nonzero"/><path fill="#82716d" d="M 479.816406 522.480469 L 467.398438 522.480469 L 467.398438 516.007812 C 472.011719 515.503906 475.683594 514.410156 476.550781 512.277344 C 477.148438 510.804688 477.390625 507.480469 477.402344 503.183594 L 522.277344 447.007812 L 522.277344 469.328125 L 479.816406 522.480469 " fill-opacity="1" fill-rule="nonzero"/><path fill="#82716d" d="M 476.371094 480.765625 C 476.011719 475.917969 475.621094 471.351562 475.289062 467.757812 L 475.347656 467.6875 C 494.246094 460.539062 501.941406 449.027344 505.042969 440.171875 L 508.796875 440.171875 L 476.371094 480.765625 " fill-opacity="1" fill-rule="nonzero"/><path fill="#82716d" d="M 549.632812 522.480469 L 537.214844 522.480469 L 537.214844 515.707031 L 576.894531 466.03125 C 578.191406 466.613281 579.546875 467.175781 580.96875 467.710938 C 580.542969 472.339844 580.011719 478.59375 579.585938 484.984375 L 549.632812 522.480469 " fill-opacity="1" fill-rule="nonzero"/><path fill="#82716d" d="M 537.214844 491.996094 L 537.214844 477.636719 L 557.777344 451.894531 C 559.527344 454.054688 561.625 456.210938 564.148438 458.277344 L 537.214844 491.996094 " fill-opacity="1" fill-rule="nonzero"/><path fill="#fc8465" d="M 457.394531 516.355469 C 465.804688 516.511719 475.101562 515.839844 476.550781 512.277344 C 479.285156 505.558594 474.5625 460.207031 474.5625 460.207031 C 473.609375 446.234375 471.058594 437.542969 468.097656 432.140625 L 457.394531 432.140625 L 457.394531 516.355469 " fill-opacity="1" fill-rule="nonzero"/><path fill="#fc7256" d="M 506.890625 432.140625 L 457.394531 432.140625 L 457.394531 472.398438 C 498.65625 465.46875 505.773438 442.089844 506.890625 432.140625 " fill-opacity="1" fill-rule="nonzero"/><path fill="#ee7d60" d="M 471.480469 513.792969 C 471.480469 513.792969 474.964844 506.699219 474.53125 497.863281 C 474.097656 489.027344 474.03125 472.398438 474.03125 472.398438 C 474.03125 472.398438 477.082031 504.398438 475.527344 508.753906 C 473.972656 513.109375 471.480469 513.792969 471.480469 513.792969 " fill-opacity="1" fill-rule="nonzero"/><path fill="#ee6c52" d="M 466.472656 467.800781 C 466.472656 467.800781 482.28125 460.460938 489.746094 453.988281 C 497.214844 447.515625 502.816406 440.171875 502.816406 440.171875 C 502.816406 440.171875 497.839844 452.242188 487.007812 458.964844 C 476.183594 465.6875 466.472656 467.800781 466.472656 467.800781 " fill-opacity="1" fill-rule="nonzero"/><path fill="#ee6c52" d="M 468.914062 457.074219 C 468.914062 457.074219 477.421875 453.117188 481.441406 449.636719 C 485.460938 446.152344 488.476562 442.199219 488.476562 442.199219 C 488.476562 442.199219 485.796875 448.699219 479.96875 452.316406 C 474.136719 455.933594 468.914062 457.074219 468.914062 457.074219 " fill-opacity="1" fill-rule="nonzero"/><path fill="#fc8465" d="M 598.859375 516.355469 C 590.449219 516.511719 581.152344 515.839844 579.703125 512.277344 C 576.96875 505.558594 581.691406 460.207031 581.691406 460.207031 C 582.644531 446.234375 585.195312 437.542969 588.160156 432.140625 L 598.859375 432.140625 L 598.859375 516.355469 " fill-opacity="1" fill-rule="nonzero"/><path fill="#fc7256" d="M 549.363281 432.140625 L 598.859375 432.140625 L 598.859375 472.398438 C 557.597656 465.46875 550.480469 442.089844 549.363281 432.140625 " fill-opacity="1" fill-rule="nonzero"/><path fill="#ee7d60" d="M 584.773438 513.792969 C 584.773438 513.792969 582.28125 513.109375 580.726562 508.753906 C 579.171875 504.398438 582.21875 472.398438 582.21875 472.398438 C 582.21875 472.398438 582.160156 489.027344 581.722656 497.863281 C 581.285156 506.699219 584.773438 513.792969 584.773438 513.792969 " fill-opacity="1" fill-rule="nonzero"/><path fill="#ee6c52" d="M 589.785156 467.800781 C 589.785156 467.800781 580.074219 465.6875 569.246094 458.964844 C 558.414062 452.242188 553.4375 440.171875 553.4375 440.171875 C 553.4375 440.171875 559.035156 447.515625 566.503906 453.988281 C 573.972656 460.460938 589.785156 467.800781 589.785156 467.800781 " fill-opacity="1" fill-rule="nonzero"/><path fill="#ee6c52" d="M 587.34375 457.074219 C 587.34375 457.074219 582.113281 455.933594 576.285156 452.316406 C 570.460938 448.699219 567.777344 442.199219 567.777344 442.199219 C 567.777344 442.199219 570.796875 446.152344 574.8125 449.636719 C 578.832031 453.117188 587.34375 457.074219 587.34375 457.074219 " fill-opacity="1" fill-rule="nonzero"/><path fill="#f1f2f2" d="M 592.039062 527.117188 L 532.101562 527.117188 L 532.101562 438.757812 L 592.039062 438.757812 Z M 524.207031 527.117188 L 464.265625 527.117188 L 464.265625 438.757812 L 524.207031 438.757812 Z M 455.878906 431.050781 L 455.878906 534.675781 L 600.425781 534.675781 L 600.425781 431.050781 L 455.878906 431.050781 " fill-opacity="1" fill-rule="nonzero"/><path fill="#999773" d="M 605.199219 546.691406 L 451.109375 546.691406 L 451.109375 533.589844 L 605.199219 533.589844 L 605.199219 546.691406 " fill-opacity="1" fill-rule="nonzero"/><path fill="#f3e7cd" d="M 966.378906 540.101562 L 970.34375 540.101562 L 970.34375 533.589844 L 966.378906 533.589844 Z M 966.378906 540.101562 " fill-opacity="1" fill-rule="nonzero"/><path fill="#cfccb9" d="M 816.253906 540.101562 L 966.378906 540.101562 L 966.378906 533.589844 L 816.253906 533.589844 Z M 816.253906 540.101562 " fill-opacity="1" fill-rule="nonzero"/><path fill="#e3c68c" d="M 705.796875 315.382812 C 677.03125 315.382812 653.714844 292.0625 653.714844 263.300781 C 653.714844 234.539062 677.03125 211.222656 705.796875 211.222656 C 734.5625 211.222656 757.878906 234.539062 757.878906 263.300781 C 757.878906 292.0625 734.5625 315.382812 705.796875 315.382812 " fill-opacity="1" fill-rule="nonzero"/><path fill="#ffffff" d="M 753.589844 263.300781 C 753.589844 289.695312 732.191406 311.089844 705.796875 311.089844 C 679.402344 311.089844 658.003906 289.695312 658.003906 263.300781 C 658.003906 236.90625 679.402344 215.515625 705.796875 215.515625 C 732.191406 215.515625 753.589844 236.90625 753.589844 263.300781 " fill-opacity="1" fill-rule="nonzero"/><path fill="#5b4c49" d="M 743.925781 263.300781 C 743.925781 284.359375 726.855469 301.429688 705.796875 301.429688 C 684.738281 301.429688 667.667969 284.359375 667.667969 263.300781 C 667.667969 242.242188 684.738281 225.171875 705.796875 225.171875 C 726.855469 225.171875 743.925781 242.242188 743.925781 263.300781 " fill-opacity="1" fill-rule="nonzero"/><path fill="#ffffff" d="M 710.574219 225.5 C 709.007812 225.304688 707.417969 225.171875 705.796875 225.171875 C 704.175781 225.171875 702.589844 225.304688 701.023438 225.5 L 701.023438 258.523438 L 667.996094 258.523438 C 667.800781 260.09375 667.667969 261.679688 667.667969 263.300781 C 667.667969 264.921875 667.800781 266.507812 667.996094 268.078125 L 701.023438 268.078125 L 701.023438 301.101562 C 702.589844 301.296875 704.175781 301.429688 705.796875 301.429688 C 707.417969 301.429688 709.007812 301.296875 710.574219 301.101562 L 710.574219 268.078125 L 743.597656 268.078125 C 743.792969 266.507812 743.925781 264.921875 743.925781 263.300781 C 743.925781 261.679688 743.792969 260.09375 743.597656 258.523438 L 710.574219 258.523438 L 710.574219 225.5 " fill-opacity="1" fill-rule="nonzero"/><path fill="#feeabc" d="M 489.207031 583.6875 L 448.621094 583.6875 C 447.539062 583.6875 446.664062 582.8125 446.664062 581.726562 L 446.664062 565.460938 C 446.664062 564.378906 447.539062 563.507812 448.621094 563.507812 L 489.207031 563.507812 C 490.285156 563.507812 491.164062 564.378906 491.164062 565.460938 L 491.164062 581.726562 C 491.164062 582.8125 490.285156 583.6875 489.207031 583.6875 " fill-opacity="1" fill-rule="nonzero"/><path fill="#feeabc" d="M 612.382812 621.476562 L 571.796875 621.476562 C 570.71875 621.476562 569.839844 620.605469 569.839844 619.523438 L 569.839844 603.257812 C 569.839844 602.179688 570.71875 601.300781 571.796875 601.300781 L 612.382812 601.300781 C 613.464844 601.300781 614.339844 602.179688 614.339844 603.257812 L 614.339844 619.523438 C 614.339844 620.605469 613.464844 621.476562 612.382812 621.476562 " fill-opacity="1" fill-rule="nonzero"/><path fill="#fde2ae" d="M 838.871094 301.429688 L 798.285156 301.429688 C 797.203125 301.429688 796.328125 300.554688 796.328125 299.472656 L 796.328125 283.207031 C 796.328125 282.125 797.203125 281.25 798.285156 281.25 L 838.871094 281.25 C 839.949219 281.25 840.828125 282.125 840.828125 283.207031 L 840.828125 299.472656 C 840.828125 300.554688 839.949219 301.429688 838.871094 301.429688 " fill-opacity="1" fill-rule="nonzero"/><path fill="#feeabc" d="M 764.21875 378.316406 L 723.632812 378.316406 C 722.554688 378.316406 721.675781 377.441406 721.675781 376.359375 L 721.675781 360.09375 C 721.675781 359.011719 722.554688 358.136719 723.632812 358.136719 L 764.21875 358.136719 C 765.300781 358.136719 766.175781 359.011719 766.175781 360.09375 L 766.175781 376.359375 C 766.175781 377.441406 765.300781 378.316406 764.21875 378.316406 " fill-opacity="1" fill-rule="nonzero"/><path fill="#ead49f" d="M 582.816406 394.417969 L 542.230469 394.417969 C 541.148438 394.417969 540.273438 393.542969 540.273438 392.460938 L 540.273438 376.195312 C 540.273438 375.117188 541.148438 374.242188 542.230469 374.242188 L 582.816406 374.242188 C 583.898438 374.242188 584.773438 375.117188 584.773438 376.195312 L 584.773438 392.460938 C 584.773438 393.542969 583.898438 394.417969 582.816406 394.417969 " fill-opacity="1" fill-rule="nonzero"/><path fill="#e1643d" d="M 528.347656 203.832031 L 487.761719 203.832031 C 486.679688 203.832031 485.804688 202.953125 485.804688 201.875 L 485.804688 185.609375 C 485.804688 184.527344 486.679688 183.65625 487.761719 183.65625 L 528.347656 183.65625 C 529.429688 183.65625 530.304688 184.527344 530.304688 185.609375 L 530.304688 201.875 C 530.304688 202.953125 529.429688 203.832031 528.347656 203.832031 " fill-opacity="1" fill-rule="nonzero"/><path fill="#ead49f" d="M 884.292969 624.660156 L 843.707031 624.660156 C 842.628906 624.660156 841.75 623.789062 841.75 622.707031 L 841.75 606.4375 C 841.75 605.359375 842.628906 604.480469 843.707031 604.480469 L 884.292969 604.480469 C 885.371094 604.480469 886.25 605.359375 886.25 606.4375 L 886.25 622.707031 C 886.25 623.789062 885.371094 624.660156 884.292969 624.660156 " fill-opacity="1" fill-rule="nonzero"/><path fill="#ead49f" d="M 934.910156 374.242188 L 894.324219 374.242188 C 893.246094 374.242188 892.367188 373.363281 892.367188 372.285156 L 892.367188 356.015625 C 892.367188 354.9375 893.246094 354.0625 894.324219 354.0625 L 934.910156 354.0625 C 935.992188 354.0625 936.867188 354.9375 936.867188 356.015625 L 936.867188 372.285156 C 936.867188 373.363281 935.992188 374.242188 934.910156 374.242188 " fill-opacity="1" fill-rule="nonzero"/><path fill="#ba8a1e" d="M 963.015625 700.808594 L 970.054688 700.808594 L 970.054688 637.890625 L 963.015625 637.890625 Z M 963.015625 700.808594 " fill-opacity="1" fill-rule="nonzero"/><path fill="#987219" d="M 970.054688 700.808594 L 967.023438 700.808594 L 967.023438 637.890625 L 970.054688 637.890625 L 970.054688 700.808594 " fill-opacity="1" fill-rule="nonzero"/><path fill="#91c422" d="M 1003.691406 623.359375 C 1003.691406 643.875 987.054688 660.511719 966.539062 660.511719 C 946.015625 660.511719 929.378906 643.875 929.378906 623.359375 C 929.378906 602.839844 946.015625 586.207031 966.539062 586.207031 C 987.054688 586.207031 1003.691406 602.839844 1003.691406 623.359375 " fill-opacity="1" fill-rule="nonzero"/><path fill="#8ab515" d="M 974.449219 587.070312 C 985.222656 593.574219 992.453125 605.359375 992.453125 618.867188 C 992.453125 639.382812 975.820312 656.015625 955.300781 656.015625 C 952.582031 656.015625 949.9375 655.707031 947.386719 655.15625 C 952.984375 658.53125 959.519531 660.511719 966.539062 660.511719 C 987.054688 660.511719 1003.691406 643.875 1003.691406 623.359375 C 1003.691406 605.554688 991.164062 590.699219 974.449219 587.070312 " fill-opacity="1" fill-rule="nonzero"/><path fill="#ba8a1e" d="M 873.585938 700.808594 L 880.628906 700.808594 L 880.628906 637.890625 L 873.585938 637.890625 Z M 873.585938 700.808594 " fill-opacity="1" fill-rule="nonzero"/><path fill="#987219" d="M 880.628906 700.808594 L 877.59375 700.808594 L 877.59375 637.890625 L 880.628906 637.890625 L 880.628906 700.808594 " fill-opacity="1" fill-rule="nonzero"/><path fill="#91c422" d="M 914.257812 623.359375 C 914.257812 643.875 897.628906 660.511719 877.105469 660.511719 C 856.585938 660.511719 839.953125 643.875 839.953125 623.359375 C 839.953125 602.839844 856.585938 586.207031 877.105469 586.207031 C 897.628906 586.207031 914.257812 602.839844 914.257812 623.359375 " fill-opacity="1" fill-rule="nonzero"/><path fill="#8ab515" d="M 885.023438 587.070312 C 895.796875 593.574219 903.027344 605.359375 903.027344 618.867188 C 903.027344 639.382812 886.390625 656.015625 865.871094 656.015625 C 863.152344 656.015625 860.511719 655.707031 857.957031 655.15625 C 863.554688 658.53125 870.089844 660.511719 877.105469 660.511719 C 897.628906 660.511719 914.257812 643.875 914.257812 623.359375 C 914.257812 605.554688 901.730469 590.699219 885.023438 587.070312 " fill-opacity="1" fill-rule="nonzero"/><path fill="#ba8a1e" d="M 530.96875 700.808594 L 538.007812 700.808594 L 538.007812 637.890625 L 530.96875 637.890625 Z M 530.96875 700.808594 " fill-opacity="1" fill-rule="nonzero"/><path fill="#987219" d="M 538.007812 700.808594 L 534.976562 700.808594 L 534.976562 637.890625 L 538.007812 637.890625 L 538.007812 700.808594 " fill-opacity="1" fill-rule="nonzero"/><path fill="#91c422" d="M 571.640625 623.359375 C 571.640625 643.875 555.007812 660.511719 534.488281 660.511719 C 513.96875 660.511719 497.332031 643.875 497.332031 623.359375 C 497.332031 602.839844 513.96875 586.207031 534.488281 586.207031 C 555.007812 586.207031 571.640625 602.839844 571.640625 623.359375 " fill-opacity="1" fill-rule="nonzero"/><path fill="#8ab515" d="M 542.398438 587.070312 C 553.175781 593.574219 560.40625 605.359375 560.40625 618.867188 C 560.40625 639.382812 543.773438 656.015625 523.25 656.015625 C 520.53125 656.015625 517.890625 655.707031 515.335938 655.15625 C 520.9375 658.53125 527.472656 660.511719 534.488281 660.511719 C 555.007812 660.511719 571.640625 643.875 571.640625 623.359375 C 571.640625 605.554688 559.113281 590.699219 542.398438 587.070312 " fill-opacity="1" fill-rule="nonzero"/><path fill="#ba8a1e" d="M 441.535156 700.808594 L 448.578125 700.808594 L 448.578125 637.890625 L 441.535156 637.890625 Z M 441.535156 700.808594 " fill-opacity="1" fill-rule="nonzero"/><path fill="#987219" d="M 448.578125 700.808594 L 445.546875 700.808594 L 445.546875 637.890625 L 448.578125 637.890625 L 448.578125 700.808594 " fill-opacity="1" fill-rule="nonzero"/><path fill="#91c422" d="M 482.210938 623.359375 C 482.210938 643.875 465.578125 660.511719 445.058594 660.511719 C 424.539062 660.511719 407.902344 643.875 407.902344 623.359375 C 407.902344 602.839844 424.539062 586.207031 445.058594 586.207031 C 465.578125 586.207031 482.210938 602.839844 482.210938 623.359375 " fill-opacity="1" fill-rule="nonzero"/><path fill="#8ab515" d="M 452.972656 587.070312 C 463.746094 593.574219 470.976562 605.359375 470.976562 618.867188 C 470.976562 639.382812 454.339844 656.015625 433.824219 656.015625 C 431.105469 656.015625 428.460938 655.707031 425.910156 655.15625 C 431.507812 658.53125 438.042969 660.511719 445.058594 660.511719 C 465.578125 660.511719 482.210938 643.875 482.210938 623.359375 C 482.210938 605.554688 469.6875 590.699219 452.972656 587.070312 " fill-opacity="1" fill-rule="nonzero"/><g clip-path="url(#20981caec0)"><path fill="#91c422" d="M 1083.933594 703.808594 L 327.660156 703.808594 L 327.660156 688.089844 L 1083.933594 688.089844 L 1083.933594 703.808594 " fill-opacity="1" fill-rule="nonzero"/></g><g clip-path="url(#dc5ffe8a3f)"><path fill="#82a818" d="M 1083.933594 711.292969 L 327.660156 711.292969 L 327.660156 703.808594 L 1083.933594 703.808594 L 1083.933594 711.292969 " fill-opacity="1" fill-rule="nonzero"/></g><path fill="#a6d12f" d="M 868.472656 615.867188 C 863.1875 620.410156 856.035156 620.761719 852.5 616.652344 C 848.964844 612.542969 850.382812 605.519531 855.667969 600.972656 C 860.953125 596.429688 868.105469 596.078125 871.640625 600.1875 C 875.175781 604.300781 873.757812 611.320312 868.472656 615.867188 " fill-opacity="1" fill-rule="nonzero"/><path fill="#a6d12f" d="M 524.808594 615.867188 C 519.523438 620.410156 512.371094 620.761719 508.835938 616.652344 C 505.300781 612.542969 506.71875 605.519531 512.003906 600.972656 C 517.292969 596.429688 524.441406 596.078125 527.980469 600.1875 C 531.511719 604.300781 530.097656 611.320312 524.808594 615.867188 " fill-opacity="1" fill-rule="nonzero"/><path fill="#a6d12f" d="M 437.941406 615.867188 C 432.65625 620.410156 425.503906 620.761719 421.96875 616.652344 C 418.433594 612.542969 419.851562 605.519531 425.136719 600.972656 C 430.421875 596.429688 437.574219 596.078125 441.109375 600.1875 C 444.648438 604.300781 443.226562 611.320312 437.941406 615.867188 " fill-opacity="1" fill-rule="nonzero"/><path fill="#a6d12f" d="M 957.902344 615.867188 C 952.617188 620.410156 945.464844 620.761719 941.929688 616.652344 C 938.394531 612.542969 939.8125 605.519531 945.097656 600.972656 C 950.382812 596.429688 957.535156 596.078125 961.070312 600.1875 C 964.605469 604.300781 963.183594 611.320312 957.902344 615.867188 " fill-opacity="1" fill-rule="nonzero"/></svg>
