<?xml version="1.0" encoding="UTF-8"?>
<svg id="Layer_2" xmlns="http://www.w3.org/2000/svg" xmlns:xlink="http://www.w3.org/1999/xlink" viewBox="0 0 28.5 21.75">
  <defs>
    <style>
      .cls-1 {
        fill: none;
      }

      .cls-2 {
        fill: #8b2120;
      }

      .cls-3 {
        fill: #fff;
      }

      .cls-4 {
        fill: #9e2825;
      }

      .cls-5 {
        fill: #b52f2c;
      }

      .cls-6 {
        fill: #232323;
      }

      .cls-7 {
        clip-path: url(#clippath);
      }
    </style>
    <clipPath id="clippath">
      <rect class="cls-1" width="28.5" height="21.75"/>
    </clipPath>
  </defs>
  <g id="Layer_1-2" data-name="Layer_1">
    <g class="cls-7">
      <path class="cls-2" d="M17.31,19.96s-1.31-5.04-2.1-5.19c-.5-.1-1.77,1.08-2.62,1.95-.07.07-.07.14,0,.21.06.07.13.09.21.04l2.29-1.63,1.68,5.48c.03.09.09.13.18.13h1.65c.08,0,.14-.05.17-.13.03-.08.02-.15-.04-.21-.18-.18-.58-.43-1.42-.66Z"/>
      <path class="cls-2" d="M7.49,19.96s1.31-5.04,2.1-5.19c.5-.1,1.77,1.08,2.62,1.95.07.07.07.14.01.22-.06.08-.13.09-.21.04l-2.29-1.63-1.68,5.48c-.03.09-.09.13-.18.13h-1.65c-.08,0-.14-.05-.17-.13-.03-.08-.02-.15.04-.21.19-.18.58-.43,1.42-.66Z"/>
      <path class="cls-5" d="M12.39,13.29c-.02,1.98-.91,3.22-2.19,3.94-2.52,1.43-6.52.84-8.22-.16-1.98-1.15.09-6.16,2.95-7.93.84-.52,1.76-.77,2.65-.55,3.95.96,4.8,4.69,4.8,4.69Z"/>
      <path class="cls-5" d="M17.4,16.06c-.41.43-.87.81-1.37,1.14-.86.56-2.07,1.1-3.43,1-2.44-.19-2.56-3.25-1.57-4.73.11-.17.24-.31.39-.44,1.39-1.17,3.9-.37,3.9-.37l2.08,3.41Z"/>
      <path class="cls-4" d="M16.03,17.2c-.86.56-2.07,1.1-3.43,1-2.44-.19-2.56-3.25-1.57-4.73.17,1.51,1,4.4,5,3.73Z"/>
      <path class="cls-4" d="M10.2,17.23c-2.52,1.43-6.52.84-8.22-.16-1.98-1.15.09-6.16,2.95-7.93-.7,1.23-1.68,3.33-1.61,5.37.1,3.09,5.12,3.46,6.88,2.72Z"/>
      <path class="cls-2" d="M3.8,20.48s1.67-6.41,2.67-6.61c.64-.13,2.25,1.38,3.33,2.49.08.09.08.18,0,.27-.07.09-.16.11-.27.05l-2.92-2.07-2.13,6.98c-.03.11-.11.17-.23.17h-2.1c-.11-.01-.18-.06-.22-.16-.04-.1-.02-.19.05-.26.23-.24.74-.54,1.81-.84Z"/>
      <path class="cls-2" d="M10.8,20.44s1.67-6.41,2.67-6.61c.64-.13,2.25,1.38,3.33,2.49.08.09.08.18,0,.27-.07.09-.16.11-.27.05l-2.92-2.07-2.13,6.98c-.03.11-.11.17-.23.17h-2.1c-.11-.01-.18-.06-.22-.16-.04-.1-.02-.19.05-.26.24-.24.74-.54,1.81-.84Z"/>
      <path class="cls-6" d="M21,7.35h-.02c-.08-.01-.11-.06-.1-.14.03-.2.8-4.8,2.37-6.33.06-.06.11-.06.17,0s.06.11,0,.17c-1.51,1.48-2.29,6.15-2.3,6.2-.01.07-.05.1-.12.1Z"/>
      <path class="cls-6" d="M23.34,1.2c-.21-.03-.32-.23-.23-.39.19-.34.5-.8.85-.73.53.1.34,1.1.07,1.16-.14.03-.44,0-.69-.03Z"/>
      <path class="cls-6" d="M21.71,7.42s-.02,0-.04,0c-.08-.02-.1-.07-.08-.15.06-.18,1.41-4.38,3.07-5.64.06-.05.12-.04.17.02.05.06.04.12-.02.17-1.61,1.22-2.98,5.48-2.99,5.52-.02.06-.06.08-.11.08Z"/>
      <path class="cls-6" d="M24.71,1.93c-.19-.05-.27-.25-.16-.39.22-.29.57-.69.89-.59.48.15.17,1.06-.09,1.09-.14.01-.41-.05-.64-.1Z"/>
      <path class="cls-5" d="M14.73,13.34c-.03-1.71,0-5.76,5.07-6.51,5.07-.75,8.7,6.56,6.99,8.85s-11.95,4-12.06-2.35Z"/>
      <path class="cls-4" d="M26.79,15.69s.05-.07.07-.11c-9.41,3.95-10.48-2.24-10.48-2.24-.46-3.25,1.01-5.23,2.03-6.18-3.69,1.22-3.71,4.65-3.69,6.18.11,6.34,10.35,4.64,12.06,2.35Z"/>
      <path class="cls-3" d="M21.5,12.46c-.06-.21-.08-.42-.06-.64.02-.22.08-.43.17-.62.1-.2.23-.37.39-.52.16-.15.34-.26.55-.34.2-.08.42-.12.63-.12s.43.04.63.12.39.19.55.34c.16.15.29.32.39.52.1.2.15.4.17.62.02.22,0,.43-.07.64-.06.21-.16.4-.3.57-.13.17-.3.32-.48.43-.13.08-.26.13-.41.18-.22.06-.45.08-.68.06-.23-.03-.45-.09-.65-.2-.2-.11-.38-.26-.52-.44-.15-.18-.25-.38-.32-.6Z"/>
      <path class="cls-6" d="M22.05,12.42c-.09-.29-.09-.58,0-.88.08-.29.24-.54.47-.74.23-.2.49-.33.79-.38.3-.05.59-.01.87.11.12.08.23.18.32.29.1.11.18.23.24.36.06.13.11.27.14.41.03.14.04.29.04.43,0,.15-.03.29-.07.43s-.1.27-.17.4c-.07.13-.16.24-.27.34-.1.1-.22.19-.34.27-.02,0-.05.02-.07.02-.2.06-.4.08-.61.05-.21-.02-.4-.08-.59-.18-.18-.1-.34-.23-.47-.39-.13-.16-.23-.34-.28-.54Z"/>
      <path class="cls-6" d="M21.95,9.23l-.34.12-.37.13c-.1.04-.2.03-.3-.02-.1-.05-.16-.12-.2-.22-.04-.1-.03-.2.02-.3.05-.1.12-.16.22-.2l.71-.24c.1-.04.2-.03.3.02s.16.12.2.22c.04.1.03.2-.02.3-.05.1-.12.16-.22.2Z"/>
      <path class="cls-4" d="M22.5,14.37c0,.19-.1.35-.3.49-.2.14-.44.2-.72.2s-.52-.07-.72-.2c-.2-.14-.3-.3-.3-.49s.1-.35.3-.49c.2-.14.44-.2.72-.2s.52.07.72.2c.2.14.3.3.3.49Z"/>
      <path class="cls-6" d="M23.69,14.93c-.1,0-.19,0-.28-.03-.08-.02-.11-.07-.09-.14.02-.08.07-.11.14-.09,0,0,.55.13.81-.24.05-.07.1-.08.17-.03.07.05.08.1.03.17-.22.31-.55.37-.78.37Z"/>
    </g>
  </g>
</svg>