<?xml version="1.0" encoding="UTF-8"?>
<svg id="Layer_2" xmlns="http://www.w3.org/2000/svg" xmlns:xlink="http://www.w3.org/1999/xlink" viewBox="0 0 39.75 42">
  <defs>
    <style>
      .cls-1 {
        fill: none;
      }

      .cls-2 {
        fill: #969090;
      }

      .cls-3 {
        fill: #fefced;
      }

      .cls-4 {
        fill: #52413f;
      }

      .cls-5 {
        fill: #b7997e;
      }

      .cls-6 {
        fill: #c0c6b1;
      }

      .cls-7 {
        fill: #474045;
      }

      .cls-8 {
        fill: #494449;
      }

      .cls-9 {
        fill: #a3aa8e;
      }

      .cls-10 {
        fill: #784e36;
      }

      .cls-11 {
        fill: #3e4044;
      }

      .cls-12 {
        fill: #7a4644;
      }

      .cls-13 {
        fill: #5d4e51;
      }

      .cls-14 {
        fill: #393a35;
      }

      .cls-15 {
        fill: #c0bea7;
      }

      .cls-16 {
        fill: #45454a;
      }

      .cls-17 {
        fill: #e38950;
      }

      .cls-18 {
        fill: #ee944f;
      }

      .cls-19 {
        fill: #594c4e;
      }

      .cls-20 {
        fill: #72523d;
      }

      .cls-21 {
        fill: #c66848;
      }

      .cls-22 {
        fill: #c96749;
      }

      .cls-23 {
        fill: #51474b;
      }

      .cls-24 {
        fill: #cf7347;
      }

      .cls-25 {
        fill: #404247;
      }

      .cls-26 {
        fill: #6b4c42;
      }

      .cls-27 {
        fill: #564845;
      }

      .cls-28 {
        fill: #4d4449;
      }

      .cls-29 {
        fill: #564949;
      }

      .cls-30 {
        fill: #3f3642;
      }

      .cls-31 {
        fill: #fdfcec;
      }

      .cls-32 {
        fill: #5e453e;
      }

      .cls-33 {
        fill: #fdf9e4;
      }

      .cls-34 {
        fill: #4e4549;
      }

      .cls-35 {
        fill: #3e4045;
      }

      .cls-36 {
        fill: #ed924d;
      }

      .cls-37 {
        fill: #3f4146;
      }

      .cls-38 {
        fill: #574b4c;
      }

      .cls-39 {
        fill: #474c47;
      }

      .cls-40 {
        fill: #614b42;
      }

      .cls-41 {
        fill: #4d4448;
      }

      .cls-42 {
        fill: #d26d48;
      }

      .cls-43 {
        fill: #3d4440;
      }

      .cls-44 {
        fill: #73302e;
      }

      .cls-45 {
        fill: #bcc2ab;
      }

      .cls-46 {
        fill: #ed924e;
      }

      .cls-47 {
        fill: #c56547;
      }

      .cls-48 {
        fill: #454146;
      }

      .cls-49 {
        fill: #4d4348;
      }

      .cls-50 {
        fill: #9f7a6f;
      }

      .cls-51 {
        fill: #adb09e;
      }

      .cls-52 {
        fill: #4b484a;
      }

      .cls-53 {
        fill: #634a44;
      }

      .cls-54 {
        fill: #faf6e8;
      }

      .cls-55 {
        fill: #3f4045;
      }

      .cls-56 {
        fill: #fdfcee;
      }

      .cls-57 {
        fill: #3f4247;
      }

      .cls-58 {
        fill: #c96849;
      }

      .cls-59 {
        fill: #4e4848;
      }

      .cls-60 {
        fill: #424842;
      }

      .cls-61 {
        fill: #3f3f45;
      }

      .cls-62 {
        fill: #e3e5db;
      }

      .cls-63 {
        fill: #b9bba5;
      }

      .cls-64 {
        fill: #4e554b;
      }

      .cls-65 {
        fill: #414046;
      }

      .cls-66 {
        fill: #4f4546;
      }

      .cls-67 {
        fill: #bebab9;
      }

      .cls-68 {
        fill: #474241;
      }

      .cls-69 {
        fill: #bfc4ae;
      }

      .cls-70 {
        fill: #b8b9a1;
      }

      .cls-71 {
        fill: #bfc5b0;
      }

      .cls-72 {
        fill: #5e4640;
      }

      .cls-73 {
        fill: #384046;
      }

      .cls-74 {
        fill: #5b4c4e;
      }

      .cls-75 {
        fill: #49504a;
      }

      .cls-76 {
        fill: #d9dac7;
      }

      .cls-77 {
        fill: #404146;
      }

      .cls-78 {
        fill: #dddccc;
      }

      .cls-79 {
        fill: #c1c4ae;
      }

      .cls-80 {
        fill: #474a4c;
      }

      .cls-81 {
        fill: #c35840;
      }

      .cls-82 {
        fill: #50464a;
      }

      .cls-83 {
        fill: #fcfceb;
      }

      .cls-84 {
        fill: #e28345;
      }

      .cls-85 {
        fill: #404348;
      }

      .cls-86 {
        fill: #c66547;
      }

      .cls-87 {
        fill: #e98c4a;
      }

      .cls-88 {
        fill: #414246;
      }

      .cls-89 {
        fill: #fefcec;
      }

      .cls-90 {
        fill: #cbb38b;
      }

      .cls-91 {
        fill: #464146;
      }

      .cls-92 {
        fill: #fcfbef;
      }

      .cls-93 {
        fill: #3f4147;
      }

      .cls-94 {
        fill: #bdbfa9;
      }

      .cls-95 {
        fill: #fefcf0;
      }

      .cls-96 {
        fill: #454846;
      }

      .cls-97 {
        fill: #714a37;
      }

      .cls-98 {
        fill: #56494c;
      }

      .cls-99 {
        fill: #4b4d4b;
      }

      .cls-100 {
        fill: #ec924c;
      }

      .cls-101 {
        fill: #bcc0ac;
      }

      .cls-102 {
        fill: #444044;
      }

      .cls-103 {
        fill: #c56546;
      }

      .cls-104 {
        fill: #d57048;
      }

      .cls-105 {
        fill: #d26e48;
      }

      .cls-106 {
        fill: #4c524f;
      }

      .cls-107 {
        fill: #594b4c;
      }

      .cls-108 {
        fill: #3d4043;
      }

      .cls-109 {
        fill: #514e4d;
      }

      .cls-110 {
        fill: #514445;
      }

      .cls-111 {
        fill: #343537;
      }

      .cls-112 {
        fill: #444741;
      }

      .cls-113 {
        fill: #ca6747;
      }

      .cls-114 {
        fill: #cccac9;
      }

      .cls-115 {
        fill: #504648;
      }

      .cls-116 {
        fill: #444145;
      }

      .cls-117 {
        fill: #f2ebe1;
      }

      .cls-118 {
        fill: #4f4447;
      }

      .cls-119 {
        fill: #fbfaef;
      }

      .cls-120 {
        fill: #5e4c4a;
      }

      .cls-121 {
        fill: #fcfaeb;
      }

      .cls-122 {
        fill: #413f41;
      }

      .cls-123 {
        fill: #564a4a;
      }

      .cls-124 {
        fill: #4d4548;
      }

      .cls-125 {
        fill: #5b4e4f;
      }

      .cls-126 {
        fill: #624b45;
      }

      .cls-127 {
        fill: #534146;
      }

      .cls-128 {
        fill: #c1c6b0;
      }

      .cls-129 {
        clip-path: url(#clippath);
      }

      .cls-130 {
        fill: #fdfced;
      }

      .cls-131 {
        fill: #ec914e;
      }

      .cls-132 {
        fill: #a45b38;
      }

      .cls-133 {
        fill: #d2cccb;
      }

      .cls-134 {
        fill: #4f4548;
      }

      .cls-135 {
        fill: #393c41;
      }
    </style>
    <clipPath id="clippath">
      <rect class="cls-1" width="39.75" height="42"/>
    </clipPath>
  </defs>
  <g id="Layer_1-2" data-name="Layer_1">
    <g class="cls-129">
      <path class="cls-100" d="M33.38,22.99c-.05.04-.1.08-.16.12-.35.21-.35.21-.27.62.39,2.18.98,4.3,1.72,6.39.71,2.02,1.12,4.11,1.34,6.24.11,1.05.08,2.1-.22,3.12-.15-.02-.1-.15-.11-.23-.03-.24-.09-.46-.29-.62-.21-.17-.38-.13-.52.09-.03.05-.05.11-.08.16-.02.03-.04.06-.07.06-.05,0-.06-.05-.08-.09-.01-.03-.01-.07-.02-.1-.05-.35-.26-.48-.6-.36-.24.09-.39.26-.49.48-.03.08-.04.16-.11.23-.07,0-.09-.04-.1-.09-.02-.12,0-.23.01-.35.03-.25-.08-.38-.33-.36-.17.01-.32.08-.44.21-.06.06-.1.15-.2.19-.13-.02-.09-.16-.17-.23-.08-.09-.2-.06-.3-.1-.06-.02-.14-.05-.05-.13,1-.38,1.56-1.19,1.28-2.3-.02-.09-.07-.17-.04-.27.03-.05.07-.06.12-.07.34-.04.56-.25.74-.44-.24.19-.51.45-.92.42-.15-.28-.3-.56-.36-.87.02-.06.07-.1.12-.12.86-.41,1.25-1.16,1.43-2.04,0,0,0-.01.01-.02-.25.83-.71,1.5-1.51,1.9-.07.03-.13.07-.21.05-.11-.04-.16-.14-.22-.24-.44-.69-.9-1.36-1.43-1.98-.08-.09-.15-.19-.04-.31,1.24-.52,1.77-1.57,2.05-2.8.01-.07.02-.13.02-.2,0-.07,0-.13,0-.2-.46.92-1.05,1.73-1.87,2.36-.23.18-.47.39-.79.39-.38-.3-.7-.67-1.04-1.01-.05-.05-.09-.12-.04-.2.36-.1.73-.18,1.07-.37.71-.4,1.2-1.02,1.58-1.72.44-.8.72-1.66.84-2.6-.65,1.43-1.62,2.58-2.85,3.5-.3.23-.64.41-.99.55-.16.06-.33.14-.51.04-.16-.08-.14.06-.15.14-.11.78-.17,1.57-.03,2.36.07.4.14.79.21,1.19.11.59.05,1.17-.04,1.75-.13.8-.18,1.6-.36,2.39-.16.74-.4,1.46-.82,2.1-.07.12-.15.32-.29.27-.14-.05-.03-.23-.01-.36.03-.2-.03-.38-.04-.58,0-.04,0-.09,0-.13,0-.18.07-.35.12-.51.28-.91.34-1.84.24-2.79-.02-.18,0-.37,0-.55-.01-.09,0-.19,0-.28-.01-.54-.01-1.08,0-1.62-.01-.15,0-.31,0-.46-.01-.34,0-.69.06-1.02.03-.15.07-.29.11-.43.11-.59.33-1.14.59-1.67.02-.04.02-.09.06-.11.23-.11.09-.23.02-.36-.1-.17-.2-.35-.28-.53-.28-.85-.2-1.69.08-2.52.3-.93.61-1.85.75-2.82.07-.46.11-.93.12-1.4,0-.09.02-.18-.05-.29.05.1.01.16-.02.22-.26.48-.5.97-.77,1.44-.03.04-.06.08-.11.1-.05,0-.08-.03-.1-.06-.26-.29-.34-.3-.69-.13-.1.04-.19.15-.32.06-.02-.21.1-.37.17-.54.35-.79.7-1.58.89-2.43.14-.65.14-1.3.01-1.95-.03-.17-.08-.34-.1-.54-.1.78-.21,1.53-.45,2.26-.29.89-.77,1.7-1.19,2.53-.14.28-.3.55-.42.83-.04.1-.08.2-.19.26-.39.04-.78.03-1.14-.15-.1-.14-.06-.31-.06-.46,0-.37-.01-.74-.16-1.1-.14.34-.27.66-.43.97-.04.09-.07.19-.19.22-.87-.52-1.6-1.19-2.16-2.06.12.91.29,1.79.52,2.66.16.59.31,1.19.4,1.79,0,.11.03.22-.03.32-.24.81-.33,1.65-.27,2.49.05.7.03,1.41.03,2.11,0,.23,0,.47,0,.7-.08,1.21-.36,2.39-.47,3.59-.04.46-.08.92-.08,1.38,0,1.27,0,2.53-.17,3.79-.1.26-.12.27-.3.15-.39-.25-.45-.24-.69.18-.01.02-.03.04-.07.04-.13-.08-.14-.24-.19-.36-.1-.22-.26-.34-.48-.4-.25-.06-.48.05-.6.29-.06.12-.09.25-.14.38-.02.06-.05.14-.13.14-.09,0-.09-.09-.1-.15-.02-.12-.04-.23-.06-.35-.07-.41-.39-.57-.76-.37-.24.13-.38.34-.47.6-.03.1-.02.22-.14.28-.18-.14-.05-.36-.12-.53-.04-.22-.16-.37-.38-.42-.06-.01-.12-.03-.15-.09,0-.13.09-.22.16-.3.56-.66.66-1.44.62-2.27-.05-1.03-.4-1.96-.79-2.9-.49-1.18-.93-2.38-1.23-3.62-.03-.15-.09-.29-.07-.44,0-.06-.06-.04-.07-.07-.08-.34-.08-.7-.1-1.04-.04-.66.07-1.32.06-1.98.05-.39.08-.78.09-1.17,0-.13.03-.25.05-.37,0-.08.03-.15.08-.21.65-1.01,1.01-2.13,1.22-3.3-.27.53-.51,1.07-.82,1.59-.05.08-.08.26-.24.11-.05-.22-.04-.45-.01-.67.04-.32.04-.65.02-.97,0-.23.11-.44.16-.66.14-.62.17-1.24.17-1.85.03-.05-.02-.02,0-.01,0,0,0,0,0,.02-.02.04-.05.07-.1.06-.1-.24-.09-.49-.11-.74-.09-.92-.26-1.82-.58-2.69-.04-.25-.07-.49-.09-.74.03-.21.16-.37.26-.54.07-.12.18-.14.3-.04.09-.77.4-.69.98-.5-.03-.19-.1-.34-.19-.49-.15-.24-.26-.49-.3-.77-.02-.1-.04-.22.07-.27.1-.05.17.04.24.1.1.1.21.19.34.26.12.06.23.14.38.2-.09-.24-.22-.43-.34-.62-.18-.28-.17-.33.13-.45.1-.04.06-.12.06-.19,0-.19-.12-.37-.02-.57.06-.05.11-.02.16,0,.33.17.67.31,1.01.45.81.55,1.57,1.14,2.26,1.83.03.04.08.07.08.12-.05.1-.14.16-.22.23-.14.04-.21-.08-.29-.15-.33-.32-.7-.6-1.07-.86.91.96,1.55,2.08,2.01,3.31.27.71.68,1.36.99,2.06.32.75.51,1.53.6,2.33.05.45.13.89.12,1.34.32-1.68.23-3.33-.22-4.98-.03-.09-.06-.18-.06-.28.05-.18.21-.25.35-.34.08,0,.12.05.16.11.27.42.51.87.68,1.27-.38-1.17-.92-2.32-1.72-3.35-.96-1.24-2.19-2.11-3.61-2.75-.08-.03-.15-.07-.24-.06-.06.03-.12.04-.19.01-.26-.12-.52-.25-.78-.37-.05-.02-.08-.06-.07-.12.15-.2.23-.22.47-.11.96.47,1.92.94,2.99,1.1.39.26.69.62,1,.95.68.72,1.32,1.48,1.85,2.32.95,1.5,1.55,3.12,1.75,4.89.05.41.06.82.11,1.2.28-.73.26-1.51.27-2.3,0-.73-.14-1.42-.41-2.09-.5-1.22-1.22-2.29-2.14-3.24-.54-.55-1.09-1.07-1.73-1.5-.06-.04-.16-.07-.13-.19,1.63.07,3.26.02,4.88.24,2.46.34,4.24,1.63,5.42,3.81.81,1.49,1.33,3.06,1.59,4.72.02.1.03.16.15.15.11.02.18.09.23.18.37.53.57,1.11.55,1.76,0,.09-.02.17-.07.24Z"/>
      <path class="cls-6" d="M4.26,15.43c-.2-.11-.27-.31-.39-.48-.13-.19-.17-.19-.28.01-.05.09-.09.19-.15.31-.1-.15-.19-.28-.25-.43-.03-.09-.05-.21-.2-.14-.07.03-.08-.02-.1-.07-.03-.1-.06-.21-.1-.34-.18.16-.24.37-.34.58-.27-.43-.28-.89-.26-1.4-.26.2-.33.48-.48.74-.36-.43-.55-.89-.34-1.46-.21.04-.35.14-.47.26-.12.11-.16.07-.19-.06-.07-.34.05-.63.21-.91.06-.11.16-.2.19-.34-.21,0-.38.12-.58.21,0-.29.05-.58-.01-.84-.11-.45.1-.8.32-1.21-.15.06-.24.1-.35.14-.03-.21.08-.38.17-.53.16-.25.35-.49.52-.74.05-.08.19-.14.11-.27.08-.26.31-.36.5-.5.05-.04.08.03.09.08-.04.28-.13.54-.19.81-.14.65-.21,1.29.05,1.93.09.24.23.45.38.65.12.16.27.2.47.14.29-.1.58-.22.89-.27.11-.02.21-.04.32,0,.04.02.07.04.07.08-.15.14-.36.12-.54.17-.25.06-.5.13-.73.26.2.21.4.29.66.17.24-.11.48-.19.73-.28.09-.03.19-.07.29-.04.02.01.04.03.05.05-.03.11-.12.12-.21.15-.27.1-.53.18-.79.29-.07.03-.17.04-.14.16-.1.17-.31.17-.45.28-.08.06-.17.09-.23.12.28-.1.52-.34.86-.36.1.03.2.02.3-.02.32-.12.64-.24.97-.34.09-.02.14-.09.17-.17.29-.24.55-.2.65.11.09-.14.19-.21.38-.14.21.07.33-.05.38-.27.06-.3.31-.45.59-.35.03.05.04.11,0,.17-.24.43-.43.87-.49,1.36-.14.13-.3.26-.1.46.03.03-.03.06-.06.08-.19.03-.35-.04-.49-.16-.18-.28-.16-.32.18-.52-.11.02-.2.12-.32.07-.11-.11-.19-.25-.38-.2-.06,0-.12,0-.17-.03-.05-.11-.14-.07-.21-.04-.26.08-.52.18-.76.3.22-.08.43-.17.65-.25.1-.04.2-.11.31-.03.03.14-.1.15-.18.19-.18.08-.37.14-.58.25.3-.02.5-.25.76-.26.04.01.06.03.07.07-.09.13-.25.16-.37.23-.08.05-.19.08-.2.2-.01.06-.03.11-.09.16.11-.02.22-.07.29.03.08.11-.04.18-.1.25-.06.07-.11.15-.18.21.17-.13.25-.37.49-.42.22.05.31-.2.51-.2.02.02.02.04.03.07-.15.3-.15.3.19.45.27.11.53.25.81.33.04-.2-.19-.4,0-.55.12-.09.29-.14.45-.03.09.25.13.52.23.77.09.23.19.45.36.63.15.15.32.24.53.25.27,0,.53.05.8.02.48-.05.78-.31,1-.71.09-.16.14-.34.23-.51.04-.08.06-.19.18-.17.11.07.04.19.08.3.27-.1.52-.25.78-.38.1-.05.19-.12.3-.12.16,0,.3.12.46.04.34.21.54.46.45.91-.13.6-.09,1.2.19,1.78.2-.25.36-.52.6-.74.11-.1.22-.27.4-.12.16.13.15.41,0,.56-.25.24-.52.49-.8.68-.55.36-.65.87-.66,1.45,0,.49-.05.99-.08,1.48-.02.14-.11.24-.2.34-.48.57-.86,1.19-1,1.93.23-.39.4-.82.7-1.17.06-.07.1-.23.25-.1,0,.34-.13.65-.2.98-.24,1.13-.41,2.26-.42,3.41-.02,1.06.03,2.12.37,3.13.31.92.72,1.79,1.36,2.53.07.08.14.15.14.26-.09.16-.19.04-.27,0-.46-.23-.88-.52-1.26-.87-.99-.89-1.72-1.97-2.3-3.16-.03-.05-.06-.1-.03-.17.11-.07.17.04.23.09.66.52,1.27,1.09,1.85,1.71-.59-.93-1.4-1.68-2.06-2.55-.22-.28-.42-.56-.64-.84-.07-.09-.12-.18-.1-.3-.12-.7-.17-1.39-.15-2.1.01-.44.08-.88.15-1.32.02-.14.07-.28.21-.35.28.02.29.28.4.42-.23-.96-.8-1.75-1.51-2.45-.36-.36-.73-.72-1.09-1.09-.54-.55-.81-1.2-.82-1.97,0-.08.02-.17-.03-.26-.13.07-.19.2-.27.32-.12.2-.21.21-.36.02-.12-.15-.25-.27-.39-.39-.05-.08-.12-.11-.2-.14Z"/>
      <path class="cls-58" d="M9.06,26.64c.58,1.23,1.32,2.35,2.34,3.26.44.4.92.76,1.49.96.28.02.51.18.76.29.1.04.11.16.1.26-.27.96-.27,1.94-.33,2.92-.03.54-.11,1.07-.1,1.61,0,.62.12,1.22.18,1.83.09,1.01-.08,1.97-.44,2.91-.03.07-.06.14-.11.2-.2.1-.15-.07-.14-.15.02-.18.03-.35.02-.53-.02-.3-.12-.58-.34-.79-.23-.22-.36-.21-.55.05-.04.05-.06.14-.14.13-.09-.02-.08-.12-.08-.19-.04-.33-.23-.48-.56-.43-.28.05-.46.23-.6.46-.06.09-.09.2-.14.3-.03.06-.05.15-.14.11-.07-.03-.05-.12-.03-.18.03-.13.07-.26.11-.39.06-.23-.03-.35-.28-.34-.35.01-.62.18-.81.48-.05.08-.08.23-.2.18-.09-.04-.03-.17,0-.25.06-.27,0-.33-.28-.31-.11,0-.21.05-.29.13-.11.1-.22.21-.31.33-.04.06-.08.16-.16.12-.08-.04-.05-.14-.01-.2.06-.13.05-.26,0-.39.11-.13.26-.21.4-.3.16-.12.34-.22.5-.34.56-.41.68-.78.41-1.42-.28-.68-.46-1.38-.49-2.12-.03-.74-.21-1.46-.45-2.16-.23-.69-.53-1.36-.81-2.03-.03-.07-.05-.14-.07-.21.06-.05.13-.04.19,0,.69.31,1.4.57,2.04.96.06.04.12.07.15.1-.56-.73-1.34-1.21-2.16-1.62-.19-.1-.39-.19-.59-.29-.48-1.14-.87-2.31-1.15-3.51.17-.02.29.1.43.18.54.3,1.03.67,1.53,1.11-.08-.2-.18-.33-.27-.46-.09-.13-.18-.26-.29-.38-.41-.43-.84-.85-1.38-1.11-.08-.04-.15-.11-.23-.15-.24-.96-.41-1.93-.49-2.92.13,0,.16.11.21.19.82,1.4,1.93,2.55,3.09,3.66.13.13.28.23.42.36.04.04.1.07.07.15Z"/>
      <path class="cls-36" d="M16.93,8.98s-.04-.04-.06-.06c-.42-.39-.78-.84-1.15-1.28-.09-.1-.16-.21-.29-.27-.12-.13-.18-.3-.25-.46-.26-.62-.74-1.34-1.26-1.88.27.44.51.84.68,1.27.03.08.1.16.07.26-.14.15-.25.03-.37-.03-.1-.08-.12-.19-.15-.28,0,.1.11.25-.07.34-.08.03-.15.03-.23-.01-.08-.06-.11-.15-.14-.24-.2-.56-.54-1.01-.94-1.4.51.8.84,1.67.73,2.67-.09.75-.46,1.35-1.12,1.74-.33.2-.68.2-1.05.08.21.39.58.49.97.54.1.01.2-.01.29.07-.02.13-.13.11-.21.12-.36.03-.71,0-1.02-.22-.09-.07-.21-.16-.33-.03-.46.17-.86.44-1.25.74-.05.04-.1.09-.18.08-.4-.29-.84-.31-1.3-.19-.06.02-.12.03-.18.02-.43-.07-.86-.12-1.3-.07-.02,0-.05-.02-.07-.03-.1-.11-.13-.25-.16-.39-.13-.55-.17-1.1-.14-1.67,0-.11.04-.21.08-.32.13-.35.05-.68-.04-1.01.05-.75.13-1.5.53-2.17.03-.07.09-.11.16-.15.06-.03.14-.05.2-.1.02,0-.02-.03,0,0,0,0,0,0-.02.02-.07.03-.13.03-.18-.02.02-.32.15-.59.41-.8.1-.05.2-.07.31-.08.16-.02.25-.12.34-.23.09-.11.21-.19.3-.02.14.25.37.29.62.31.08,0,.15,0,.22.06.16.22.22.46.18.72-.14.16.08.2.1.31.33.66.52,1.35.49,2.1-.08.46-.25.9-.36,1.37.06-.18.08-.34.13-.55.18.22.18.47.27.65,0-.03-.03-.09,0-.15.11-.27.35-.37.6-.46.12-.04.24-.06.36-.1.31-.11.49-.34.51-.65.02-.22.1-.36.27-.48.04-.06.09-.12.13-.18.34-.54.27-1.11.12-1.68-.08-.27-.21-.53-.37-.74,0,.11,0,.24-.05.36-.05.12-.11.11-.18.01-.05-.08-.07-.17-.11-.26-.24-.52-.53-.98-1.11-1.16-.08-.03-.16-.04-.25-.05-.29-.21-.65-.14-.91-.23-.09,0-.06.06-.07.02,0,0,0-.01.02-.01.1,0,.2-.03.25.1,0,.16.02.32-.04.48-.19.14-.35,0-.47-.09-.25-.2-.46-.27-.72-.03-.1.09-.26.19-.43.08-.08-.16-.02-.31.03-.47.01-.02.03-.04.05-.06.01,0,.03-.02.04-.02.03.02.06,0,.03,0-.08-.02-.21,0-.19-.12.02-.18.15-.27.31-.33.1-.04.2-.08.3-.13.16-.12.31-.13.49-.03.22.12.46.14.71.14.57,0,1.14,0,1.7.14.24.06.47.17.74.31-.48-.54-1.07-.7-1.7-.76-.23-.02-.47-.04-.7-.07-.3-.04-.55-.17-.62-.5-.02-.08.01-.21-.13-.21-.14,0-.31-.03-.39.15-.06.13-.13.26-.29.29-.25-.08-.26-.28-.27-.49.4-.18.75-.43,1.05-.76.17-.19.4-.29.67-.33-.01.15-.13.19-.19.28-.11.17-.23.33-.31.52-.12.29-.08.39.23.43,1,.13,1.95.38,2.86.82.02,0,.05,0,.07,0,.21.02.37.16.53.27.28.18.57.36.88.48.05.02.09.04.13.07.08.05.15.12.14.22-.01.1-.1.12-.18.14-.03,0-.07,0-.11.06.27.35.63.66.88,1.04.03.06.04.13.09.18,1.1,1.34,1.92,2.84,2.51,4.46.01.04.02.09-.03.1-.07.01-.09-.05-.13-.09Z"/>
      <path class="cls-71" d="M8,38.98c.15.05.15.15.11.28-.03.09-.11.17-.08.31.09-.19.23-.31.35-.45.16-.18.37-.21.6-.2.15.01.21.09.19.23-.02.12-.06.24-.08.37.1-.17.21-.32.35-.45.24-.21.51-.28.82-.22.19.03.25.14.2.33-.06.2-.11.4-.15.6.13-.25.22-.51.44-.7.13-.12.28-.19.45-.21.44-.05.61.14.61.64.01,0,.03,0,.04-.02.26-.46.44-.48.78-.07.3.35.32.78.27,1.22,0,.08-.07.16,0,.24.03.03-.07.12.08.11.48-.03.97,0,1.46-.01.28,0,.29,0,.24-.29-.09-.56.23-1.41.77-1.58.26.1.28.16.18.55,0,.03.05.02.01.02.06-.34.22-.56.61-.51.07.1.05.22.06.34,0,.28.13.51.34.7.05.05.11.13.19.09.07-.03.04-.12.04-.18.02-.18-.06-.37.07-.53.11.17-.03.38.09.55.08.07.06.17.08.26.07.39.17.77.46,1.07.1.1.21.17.35.17.31,0,.62.03.92-.06.06-.02.13-.04.2-.02.48.16.96.06,1.44,0,.07,0,.14-.02.19-.06.23-.18.48-.16.74-.1.95.03,1.9.07,2.91.22-.23.13-.41.12-.57.13-.55.05-1.1.08-1.66.1-.9.03-1.8.03-2.7.06-2.99.09-5.98.05-8.98.03-.91,0-1.81-.01-2.72-.04-1.06-.04-2.11-.06-3.17-.1-1.2-.04-2.4-.12-3.59-.2-.32-.02-.65-.02-.95-.19,2.44-.34,4.89-.25,7.36-.36-.15-.52-.17-1.03.11-1.51.13-.23.27-.45.53-.55Z"/>
      <path class="cls-47" d="M7.84,1.08c.12.14.05.38.27.47.01.03,0,.05,0,.08-.13.13-.3.14-.46.18-.41.09-.83.14-1.23.25-.42.12-.79.33-1.09.64.55-.38,1.2-.4,1.83-.46.2-.02.4,0,.6,0,.09,0,.19-.01.26.07-.01.01-.02.03-.04.03-.15.02-.24.15-.23.25.01.13.19.02.28.08-.04.06-.11.06-.17.08-.29.03-.58.1-.88.14-.23.03-.43.16-.62.29-.33.11-.5.39-.69.65-.08.11-.12.24-.21.34-.59.62-.84,1.33-.61,2.18,0,.19.16.27.29.36.08.07.07.16.06.25-.06.33.05.55.34.71.08.04.16.1.25.11.29.05.5.21.68.44.06.02-.04.16.09.13-.01.7.02,1.4.26,2.07,0,.05-.01.09-.04.13-.23.24-.23.24-.48.02-.28-.25-.54-.53-.9-.67-.03,0-.02.05-.02.02,0,0,0,0,0,0,.22.04.37.18.53.32.24.21.47.43.73.61.05.1.24.14.11.3-.55.13-1.11.1-1.67.1-.39,0-.47-.09-.41-.49.04-.24.14-.47.3-.66.08-.09.15-.18.13-.31,0-.11.07-.17.14-.22.15-.12.26-.28.41-.49-.26.12-.47.2-.71.2-.3,0-.53-.12-.7-.37-.39-.61-.53-1.28-.48-1.99.05-.74.32-1.42.7-2.02-.28.31-.5.68-.74,1.04-.07.07-.16.07-.25.08-.17.06-.17.23-.24.35-.07.12-.06.28-.21.35-.08-.01-.14-.05-.18-.12-.01-.03-.02-.07,0-.1.19-.52.44-1.01.75-1.47.02-.03.04-.07.06-.07-.37.43-.73.88-1,1.4-.24.47-.46.95-.64,1.45-.03.08-.02.19-.15.2-.22.11-.39.29-.56.46-.24.26-.48.51-.72.77-.02-.02-.04-.03-.07-.05.11-.48.3-.94.49-1.4.5-1.16,1.14-2.23,1.92-3.21.08-.1.2-.19.2-.34.17-.3.45-.52.66-.79.09-.11.18-.19-.02-.27-.11-.05-.09-.15-.02-.23.07-.09.16-.15.25-.21.43-.26.86-.52,1.3-.77.07-.06.13.04.19,0,.77-.35,1.56-.62,2.36-.88Z"/>
      <path class="cls-33" d="M15.45,7.34s.08,0,.1.03c.44.51.92,1,1.32,1.55-.05.03-.26-.14-.14.09.26.55.31,1.14.35,1.73-.17,0-.35-.08-.44.15.02.05.07.08.05.15-.01.22.05.43.08.65.02.11.05.24-.15.17-.06-.02-.15-.03-.19.03-.05.07,0,.15.04.21.12.2.25.4.36.6.04.08.08.16.06.28-.36-.19-.71-.37-1-.73-.12.69.46,1.11.51,1.74-.25-.19-.49-.3-.76-.22-.35.1-.12.46-.28.65-.23-.16-.23-.16-.37.12-.06.11-.13.22-.19.32,0,.14-.08.24-.22.28-.13.04-.16-.1-.23-.18-.16.27-.21.55-.24.83-.1.8-.42,1.5-.87,2.15-.36.51-.76.98-1.17,1.45-.05.06-.1.14-.2.12,0-.29-.03-.58,0-.86.05-.36.06-.72.07-1.07,0-.44.22-.7.52-.94.32-.26.62-.53.93-.8.12-.11.12-.37.02-.49-.09-.1-.15-.01-.21.04-.24.21-.43.46-.62.72-.06.08-.11.16-.18.27-.13-.47-.32-.9-.28-1.38.01-.18,0-.38.05-.55.16-.45-.09-.71-.41-.94-.09-.03-.17-.09-.11-.18.07-.1.15,0,.2.05.11.11.2.33.34.3.15-.03.11-.27.2-.41.06-.1.07-.22.1-.34,0-.19.13-.3.23-.44-.05-.09-.11-.21.08-.18.23.04.43-.04.64-.08.06,0,.11-.05.16-.07.23-.05.46-.13.69-.21.9-.29,1.52-.83,1.67-1.8.06-.35.02-.7-.05-1.05-.1-.49-.24-.96-.42-1.42-.04-.1-.12-.21-.07-.33Z"/>
      <path class="cls-71" d="M33.38,38.99s.03.06.05.09c.08.07.03.16.03.24,0,.31.09.6.26.85.13.19.32.29.55.31.3.02.6,0,.88-.15.08-.04.16-.1.26-.03,1.27.09,2.55.04,3.81.25,0,.02,0,.05,0,.07-.18.03-.35.06-.53.07-.66.04-1.32.09-1.98.1-2.99.03-5.98.1-8.97.05-.83-.02-1.66-.01-2.49-.04-1.01-.04-2.01-.09-3.01-.15-.3-.02-.6-.06-.9-.09-.18-.03-.12-.11-.03-.19.31-.1.65-.08.97-.12.18-.02.19-.07.15-.23-.13-.57-.03-1.1.4-1.53.07-.07.15-.14.25-.15.26.09.27.11.13.57,0,.03.05,0,.02,0-.01,0-.02,0-.01-.02.13-.44.47-.7.92-.71.42,0,.55.22.37.65.23-.49.6-.66,1.09-.5.28.09.37.26.29.57.09-.24.28-.35.52-.36.23,0,.38.1.46.32,0,.03,0,.06,0,.09-.07.23-.1.47-.19.7-.09.23-.2.44-.39.69.32-.18.62-.14.91-.14,1.25,0,2.5,0,3.76,0,.32,0,.32,0,.31-.31,0-.31-.03-.62.1-.92.11-.25.2-.27.41-.09.09.08.17.16.28.22.1.06.15.04.16-.09,0-.19-.04-.39.1-.55.08.07-.02.19.08.25.12.13.16.33.31.45.07.06.14.11.23.15.27.13.3.11.37-.18.01-.05.01-.12.1-.11Z"/>
      <path class="cls-31" d="M21.27,40.4c-.05.07-.02.12.05.15-.04.18-.09.36-.11.55-.03.2.05.27.21.3-.24,0-.45.06-.69.15-.54.19-1.12.26-1.69.08-.03,0-.05-.03-.09-.02-.28.13-.59.08-.88.1-.39.04-.61-.18-.77-.49-.17-.34-.3-.69-.27-1.08.04-.6.45-1.03.94-1,.25.01.41.13.45.39.03.19.06.38.1.64.16-.44.22-.93.78-.91.49.02.65.4.77.84.17-.54.4-.61.78-.25.13.12.16.07.2-.05.12.19.12.42.21.62Z"/>
      <path class="cls-25" d="M9.06,26.64c-.98-.86-1.91-1.77-2.72-2.8-.39-.49-.71-1.04-1.07-1.55-.25-.61-.53-1.2-.69-1.85-.11-.44-.2-.88-.22-1.33.14-.01.18.1.22.2.51,1.21,1.28,2.26,2.1,3.27.05.06.12.12.17.18.42.62.91,1.19,1.34,1.79.06.08.13.15.14.26.53.8,1.14,1.53,1.78,2.24.35.4.69.8.98,1.24.06.09.14.17.13.33-.7-.73-1.41-1.39-2.17-1.99Z"/>
      <path class="cls-19" d="M20.63,11.9c.75.52,1.44,1.11,2.05,1.78,1.11,1.21,2.01,2.56,2.33,4.2.21,1.09.2,2.2-.14,3.29-.02.06-.05.13-.07.19,0,.02-.03.03-.06.06-.04-.46-.07-.91-.12-1.36-.16-1.62-.69-3.12-1.51-4.52-.73-1.26-1.7-2.33-2.72-3.35-.11-.11-.23-.19-.31-.33.19-.02.38.03.56.06Z"/>
      <path class="cls-22" d="M6.83,22.8c-.47-.5-.88-1.05-1.27-1.62-.41-.6-.76-1.22-1.04-1.89-.03-.08-.06-.16-.15-.19-.17-1.22-.16-2.45-.11-3.68.1-.06.18-.05.21.08.15.31.1.66.15.99.11.72.41,1.32,1.03,1.73.09.06.18.12.22.23.1.39.1.8.17,1.19.18.93.39,1.86.74,2.75.05.13.15.26.05.4Z"/>
      <path class="cls-98" d="M14.5,4.33c-.38-.31-.65-.71-.97-1.05.03-.09.09-.09.13-.1.07-.03.2.02.22-.08.02-.12-.11-.18-.21-.22-.53-.19-.96-.54-1.43-.82.56-.42,1.13-.81,1.82-.96.46-.1.83.15.92.62.08.42,0,.82-.13,1.21-.14.46-.27.93-.34,1.41Z"/>
      <path class="cls-83" d="M35.4,40.3c-.35.15-.7.3-1.1.26-.32-.03-.56-.16-.7-.44-.17-.33-.27-.66-.17-1.03.04-.42.39-.78.77-.8.36-.02.51.13.5.49v.18c.05-.1.07-.14.09-.18.2-.41.53-.44.79-.07.11.16.18.34.18.54,0,.08-.04.17.04.24-.03.21-.15.39-.27.56-.06.08-.12.16-.13.26Z"/>
      <path class="cls-37" d="M5.33,1.96c-.22.24-.54.32-.79.5-.21.15-.44.27-.66.41-.07.04-.16.09-.15.19.01.09.11.08.18.1.11.02.13.08.06.16-.29.3-.53.64-.85.91,0-.02-.02-.03-.03-.05-.09-.68-.35-1.31-.44-1.99-.06-.39-.01-.76.32-1.03.18-.14.38-.22.61-.17.64.13,1.18.47,1.69.87.03.03.05.07.05.11Z"/>
      <path class="cls-69" d="M5.33,1.96c-.51-.38-1.02-.74-1.65-.89-.52-.12-.97.22-.98.76,0,.49.13.96.27,1.43.09.3.15.6.12.92-.36-.6-.79-1.17-1.05-1.83-.29-.71-.05-1.54.53-1.91.43-.27.88-.27,1.34-.06.21.09.39.22.54.38.28.3.58.57.84.88.09.09.08.23.18.31-.05.07-.1,0-.15,0Z"/>
      <path class="cls-86" d="M34.49,13.76c-.03-.6.08-1.18.24-1.75.49.15.99.3,1.48.44.08.02.16.06.19.14-.03.48-.07.95-.1,1.43-.07.05-.15.02-.22,0-.4-.15-.82-.2-1.25-.18-.12,0-.25.02-.36-.07Z"/>
      <path class="cls-124" d="M33.38,22.99c.04-.82-.16-1.56-.72-2.17.24-.16.49-.31.73-.47.14-.02.24.05.33.15.42.49.61,1.05.58,1.69,0,.07-.02.13-.07.18-.26.24-.54.45-.85.62Z"/>
      <path class="cls-35" d="M36.41,12.59c-.48-.15-.97-.3-1.45-.45-.08-.03-.19-.02-.22-.13.09-.37.22-.71.43-1.04.25-.12.46.02.66.11.32.14.65.28.84.61-.09.3-.17.6-.26.9Z"/>
      <path class="cls-82" d="M33.87,19.88c.16-.21.31-.42.47-.64.08-.05.16-.03.24,0,.55.23.95.61,1.2,1.15.02.04.02.08.01.12-.14.35-.38.63-.61.92-.1,0-.13-.09-.16-.17-.22-.51-.57-.9-1.01-1.22-.06-.04-.13-.08-.14-.17Z"/>
      <path class="cls-131" d="M35.8,20.52c-.26-.46-.55-.87-1.04-1.12-.14-.07-.27-.13-.42-.16.1-.22.2-.43.3-.65.08-.06.17-.07.26-.06.52.07.98.26,1.38.59.04.03.06.08.08.13-.13.45-.29.88-.56,1.26Z"/>
      <path class="cls-103" d="M36.67,11.69c-.32-.24-.63-.49-1.02-.62-.16-.05-.32-.09-.49-.1.26-.46.58-.87,1-1.19.07,0,.14.01.19.06.36.33.68.69.76,1.21-.18.19-.29.43-.44.64Z"/>
      <path class="cls-46" d="M36.58,16.8c.04.5.06,1-.03,1.49-.06.02-.11-.01-.16-.04-.43-.27-.89-.44-1.42-.39-.06,0-.12,0-.17-.04.01-.29.02-.59.04-.88.33-.2.69-.17,1.06-.16.23,0,.45.12.68.02Z"/>
      <path class="cls-87" d="M33.87,19.88c.42.27.78.6,1.04,1.04.1.17.18.35.28.53-.3.33-.59.67-.96.93.06-.62-.06-1.2-.45-1.71-.1-.13-.21-.26-.38-.32.16-.16.32-.31.47-.46Z"/>
      <path class="cls-77" d="M34.49,13.76c.62-.04,1.24,0,1.82.26,0,.26.1.52.04.79-.02.03-.05.04-.09.04-.53,0-1.06-.03-1.58.06-.05,0-.1-.01-.14-.05-.07-.37-.08-.74-.06-1.11Z"/>
      <path class="cls-8" d="M36.58,16.8c-.02.09,0,.18-.15.14-.53-.14-1.06-.11-1.58,0-.05-.32-.09-.65-.14-.97.33-.23.7-.22,1.08-.2.24.07.53.02.72.26.07.25.05.51.08.77Z"/>
      <path class="cls-11" d="M38.28,9.16c.57.19.89.62,1.07,1.17.03.07.02.14-.01.19-.2.33-.8.72-1.16.61-.1-.1-.2-.2-.3-.3-.02-.06,0-.12.03-.17.18-.39.25-.79.26-1.22,0-.1-.05-.25.12-.29Z"/>
      <path class="cls-21" d="M35.8,15.83c-.38-.02-.74.04-1.1.14-.09-.36-.14-.74-.16-1.11.6-.12,1.2-.15,1.81-.06.02.09.03.18.05.26-.17.28-.35.54-.6.76Z"/>
      <path class="cls-82" d="M34.8,17.83c.66-.14,1.23.08,1.75.47-.03.33-.09.65-.19.97-.38-.29-.79-.53-1.27-.63-.15-.03-.3-.02-.45-.04.05-.26.11-.51.16-.77Z"/>
      <path class="cls-65" d="M7.13,29.54c.06-.07.11-.01.16.01.77.35,1.5.76,2.14,1.31.22.19.4.42.58.66-.07.06-.11,0-.15-.01-.7-.47-1.49-.73-2.24-1.08-.04-.02-.08-.02-.12-.02-.15-.27-.26-.56-.36-.86Z"/>
      <path class="cls-77" d="M37.11,11.04c-.14-.32-.28-.62-.52-.88-.13-.15-.27-.28-.43-.38.29-.27.62-.46,1.01-.56.09.02.15.08.19.15.19.32.33.66.38,1.03.02.11.03.24-.07.33-.25,0-.39.18-.56.32Z"/>
      <path class="cls-61" d="M5.77,25.21c.16-.04.26.1.37.16.77.43,1.37,1.04,1.81,1.81.03.06.06.12.09.18,0,.01,0,.03-.01.09-.63-.56-1.3-1.03-2.03-1.42-.12-.26-.17-.54-.22-.82Z"/>
      <path class="cls-45" d="M37.67,10.73c.04-.57-.18-1.06-.5-1.51.36-.15.74-.12,1.11-.06-.12.28-.02.57-.1.86-.07.29-.14.57-.31.81-.07-.03-.12-.1-.21-.11Z"/>
      <path class="cls-79" d="M38.18,11.13c.37-.07.73-.19.99-.49.08-.09.18-.18.18-.32.13.33.2.69.36,1.01.03.07.04.14-.06.15-.52.02-1.04,0-1.47-.35Z"/>
      <path class="cls-17" d="M35.8,15.83c.17-.28.36-.54.6-.76.06.32.08.64.1.96-.22-.1-.47-.13-.7-.2Z"/>
      <path class="cls-122" d="M5.29,1.65c-.14,0-.19-.13-.27-.21-.35-.37-.69-.76-1.12-1.06.59.12.95.52,1.25,1,.05.09.09.18.13.27Z"/>
      <path class="cls-33" d="M16.93,8.98c.05-.04.12.19.16,0,.03.06.13.14.04.17-.08.03-.18-.05-.2-.17Z"/>
      <path class="cls-3" d="M13.7,31.37c.02-.12-.03-.17-.15-.21-.23-.07-.46-.16-.66-.3-.27-.38-.59-.73-.82-1.14-.55-1-.95-2.05-1.06-3.2-.19-2,.06-3.95.58-5.88.02-.06.02-.11.03-.17-.03-.14.07-.21.16-.29.26-.24.54-.46.83-.66.5-.34.97-.73,1.38-1.17.49-.54.73-1.18.8-1.89.02-.22.07-.43.06-.65,0-.07,0-.14.07-.18.24.49.33,1.03.44,1.56.13.61.16,1.24.22,1.86.06.08.05.17.03.27-.13.9-.4,1.77-.78,2.6-.27.6-.58,1.18-.89,1.78.56-.6.96-1.27,1.29-2,.04-.08.04-.18.15-.21.07.32.02.64,0,.96-.01.26-.04.51-.02.77.06.16-.05.27-.12.39-.4.68-.87,1.32-1.35,1.94-.48.62-1.01,1.21-1.28,1.95.29-.39.64-.76,1.02-1.1.47-.42.93-.85,1.32-1.35.05-.06.09-.14.2-.13-.07.52-.05,1.05-.14,1.56-.19.67-.5,1.3-.69,1.97-.26.92-.43,1.85-.48,2.8-.02.06-.04.14-.13.13Z"/>
      <path class="cls-3" d="M24.21,23.3c.37.13.76.12,1.15.14.06.11,0,.21-.03.31-.23.72-.34,1.45-.34,2.21,0,.65,0,1.29.12,1.93.01.07,0,.13,0,.26.06-.87.15-1.69.39-2.47.26-.84.59-1.64.95-2.44.03-.07.07-.16.17-.16.11-.05.21-.1.32-.15.39-.19.56-.14.76.26.06.11,0,.21-.04.31-.4.92-.55,1.88-.56,2.87,0,.71,0,1.43,0,2.14,0,.12,0,.24-.02.35-.06.19-.23.23-.39.28-1.29.45-2.62.72-3.96.92-.08.01-.17.03-.25.04-.54.1-.54.1-.59.64,0,.08.02.19-.12.21,0-.77.02-1.54-.01-2.31-.03-.75-.06-1.49.06-2.23.05-.26.1-.53.16-.79,0-.05.05-.03.08-.02.17.31.19.33.5.07.69-.58,1.23-1.27,1.52-2.14.03-.09.03-.19.12-.24Z"/>
      <path class="cls-58" d="M23.08,38.38c.24-.23.55-.35.84-.5.85-.44,1.18-1.22.89-2.14-.27-.86-.61-1.7-1-2.52-.04-.09-.08-.18-.11-.28.09-.08.18-.03.26,0,.53.17,1.07.27,1.63.31.45.03.88-.05,1.31-.18.1-.03.2-.09.32-.05,0,.56,0,1.12,0,1.67-.3.26-.67.33-1.04.39-.4.06-.8.07-1.06-.02.64.24,1.1.23,1.88-.08.07-.03.14-.07.21-.03.02.43.04.87.05,1.3.03.79-.11,1.55-.35,2.29-.03.09-.04.2-.06.29-.43-.39-.58-.37-1.05.16.03-.21.12-.43-.13-.57-.28-.16-.66-.13-.88.06-.15.13-.25.29-.35.5-.03-.18.03-.29.06-.41.04-.16-.02-.25-.17-.31-.34-.12-.77.04-1.01.39-.07.1-.12.22-.21.32.03-.12.07-.23.09-.35.02-.12.02-.25-.15-.26Z"/>
      <path class="cls-22" d="M23.08,31.63c-.26-.5-.43-1.03-.59-1.57.48-.09.95-.17,1.43-.26.97-.18,1.93-.43,2.86-.76.09-.03.2-.04.26-.14.25-.13.55-.18.75-.41.16.28.32.56.51.9-.24-.14-.26,0-.33.14-.18.37-.34.74-.46,1.14-.04.15-.08.3-.12.45-.69.38-1.42.63-2.2.74-.71.1-1.42.03-2.1-.23Z"/>
      <path class="cls-13" d="M29.54,23.02c.14-.79.21-1.54.16-2.3-.14-2.15-.85-4.08-2.38-5.62-1.24-1.25-2.71-2.16-4.39-2.72-.09-.03-.19-.07-.29-.1.36-.08,1.08-.03,1.65.14,1.41.4,2.7,1.03,3.8,2.01.96.85,1.55,1.93,1.92,3.14.26.87.38,1.77.35,2.68-.03.87-.21,1.71-.6,2.5-.04.09-.08.18-.21.28Z"/>
      <path class="cls-28" d="M26.62,23.08c-.59,1.2-1.1,2.43-1.31,3.75-.07.46-.11.93-.16,1.4-.31-.57-.46-3.18.21-4.8.47-1.02,1.06-1.99,1.5-3.02.35-.81.51-1.66.62-2.53.02-.13.04-.26.06-.42.1.11.11.22.14.33.34,1.28.13,2.51-.39,3.7-.23.52-.44,1.05-.67,1.57Z"/>
      <path class="cls-41" d="M19.44,18.35c.17.44.25.9.33,1.36.11.65.2,1.31.24,1.97.07,1.2-.38,2.2-1.11,3.1-.29.35-.59.69-.92,1.01-.68.65-1.32,1.34-1.86,2.19-.03-.16,0-.25.04-.34.03-.09.06-.18.09-.26.29-.79.7-1.5,1.16-2.2.4-.62.81-1.24,1.19-1.87.56-.95.86-1.98.9-3.08.02-.62-.03-1.24-.06-1.86Z"/>
      <path class="cls-34" d="M27.79,28.49c0,.06.02.13-.05.16-.23.1-.43.27-.7.25,0-1.15-.07-2.3.04-3.45.08-.79.3-1.54.63-2.26.32-.6.64-1.19.98-1.83.07.31.05.57.03.83-.07,1.31-.43,2.55-.85,3.79-.28.83-.35,1.67-.08,2.52Z"/>
      <path class="cls-34" d="M14.92,15.62c-.02.6-.07,1.19-.27,1.75-.28.81-.89,1.36-1.55,1.87-.41.32-.86.59-1.24.94-.09.09-.19.17-.24.29-.32.3-.51.68-.71,1.05-.08.15-.13.32-.3.47.1-.75.41-1.36.84-1.92.14-.19.29-.37.43-.55.52-.59,1.03-1.19,1.47-1.84.48-.71.65-1.51.79-2.33.03-.18.07-.36.22-.5q.2.33.44.02c.09.25.09.51.11.76Z"/>
      <path class="cls-134" d="M28.65,30.05c-.1-.12-.21-.24-.27-.39.33.03.6-.14.87-.28.89-.48,1.58-1.19,2.22-1.95.51-.59.87-1.27,1.26-1.96-.01.13-.01.27-.03.4-.02.13-.04.27-.07.4-.3,1.26-.8,2.43-1.78,3.32-.46.42-1.01.69-1.65.73-.26.08-.38-.14-.55-.27Z"/>
      <path class="cls-48" d="M22.08,16.43c.02.08.04.16.05.25.03.05.04.12.02.17-.18.34-.31.7-.45,1.06-.03.07-.09.13-.18.1-.56-1.13-1.07-2.29-1.61-3.43-.34-.73-.9-1.33-1.41-1.95-.02-.03-.05-.06-.06-.11.48.27.91.61,1.3,1,.07.06.12.14.22.17.06,0,.1.02.13.06.75.71,1.48,1.43,1.91,2.39.04.1.07.2.08.31Z"/>
      <path class="cls-105" d="M16.22,39.18c-.33.02-.47.29-.64.57,0-.25.17-.48-.11-.62,0-.1.08-.14.15-.19.09-.07.18-.13.27-.18.47-.29.67-.69.69-1.25.05-1.12-.13-2.19-.49-3.24-.31-.91-.62-1.81-.85-2.75-.12-.49-.19-.98-.24-1.48-.02-.16-.05-.33.06-.48.13.3.16.62.25.93.32,1.14.73,2.24,1.18,3.34.35.85.64,1.7.71,2.63.04.67,0,1.3-.28,1.91-.13.29-.36.52-.55.78-.04.06-.1.06-.16.05Z"/>
      <path class="cls-128" d="M15.06,29.55c-.01.67.12,1.32.25,1.97-.08.07-.17.04-.26.03-.33-.03-.66-.06-.98-.15-.09-.03-.2-.05-.26-.14-.11-.23-.02-.47,0-.69.15-1.32.49-2.58,1.04-3.79.05-.11.06-.23.15-.31-.01.64-.04,1.27-.04,1.91,0,.39.01.78.09,1.17Z"/>
      <path class="cls-130" d="M22.06,25.36c-.26-1.38-.72-2.72-.88-4.12-.02-.16-.08-.31-.04-.51.18.23.33.45.5.66.41.52.9.94,1.45,1.31.09.06.21.1.27.21.06.09,0,.16-.03.23-.34.7-.71,1.38-1.11,2.05-.04.06-.07.13-.16.15Z"/>
      <path class="cls-49" d="M22.06,25.36c.46-.8.91-1.6,1.29-2.43.25-.42.43-.86.61-1.35.29.57.24,1.15.24,1.72-.22,1-.84,1.74-1.57,2.41-.04.04-.09.07-.14.1-.38.25-.4.24-.43-.21,0-.08,0-.16,0-.24Z"/>
      <path class="cls-38" d="M20.17,13.45c-.44-.41-.89-.82-1.38-1.19-.32-.24-.64-.48-.96-.72-.06-.1-.31-.09-.19-.3.75.26,1.43.66,2.08,1.11,1.55,1.09,2.59,2.58,3.27,4.33.11.28.2.57.3.86.02.07.03.14.03.22-.3-.55-.54-1.14-.93-1.65-.21-.16-.33-.4-.47-.61-.45-.64-.97-1.24-1.54-1.78-.08-.08-.19-.15-.2-.28Z"/>
      <path class="cls-49" d="M15.15,24.91c-.75,1.04-1.88,1.72-2.63,2.76.09-.44.31-.81.56-1.17.67-.92,1.41-1.79,2.01-2.77.1-.17.22-.34.28-.53.37-.51.6-1.1.89-1.65.05-.1.1-.2.18-.29-.04.74-.25,1.43-.5,2.11-.2.55-.48,1.05-.78,1.54Z"/>
      <path class="cls-107" d="M26.17,20.05c-.22-2.28-1.17-4.18-2.46-5.94,1.64.61,3.35,4.07,2.46,5.94Z"/>
      <path class="cls-120" d="M31.57,18.18c.62,2.03-.7,6.84-2.65,8.19,1.67-2.48,2.48-5.23,2.65-8.19Z"/>
      <path class="cls-110" d="M20.69,24.58c-.28,2.83-1.84,4.75-4.12,6.21.13-.34.34-.61.57-.87.22-.24.45-.47.69-.7,1.32-1.23,2.24-2.71,2.73-4.45.02-.06.02-.12.13-.19Z"/>
      <path class="cls-113" d="M23.42,32.38c-.12-.21-.22-.43-.29-.66.11-.05.19.02.28.06,1.23.58,2.42.47,3.59-.17.08-.05.16-.13.28-.09-.05.35-.06.71-.06,1.06-.07.08-.16.11-.26.14-1.12.31-2.22.24-3.3-.17-.1-.04-.16-.11-.24-.17Z"/>
      <path class="cls-118" d="M30.35,32.03c-.12-.14-.24-.27-.36-.41.03-.16.15-.14.26-.15.46-.13.81-.43,1.15-.74.61-.58,1.11-1.26,1.47-2.03.02-.04.04-.08.09-.17.06.43-.03.79-.14,1.15-.2.64-.51,1.22-.99,1.7-.28.28-.6.49-.98.59-.16.12-.33.15-.51.06Z"/>
      <path class="cls-74" d="M21.51,18c.09-.04.14-.11.17-.21.11-.34.21-.68.43-.97.03-.03.01-.1.02-.15.21.49.28,1.01.34,1.54.07.6.12,1.2.1,1.81-.01.59-.08,1.17-.2,1.74-.01.05-.02.1-.1.15-.1-1.34-.21-2.67-.75-3.91Z"/>
      <path class="cls-42" d="M31.84,38.27c.13-.28.32-.52.56-.7.41-.29.44-.68.35-1.11-.13-.61-.41-1.16-.69-1.71,0,0,.02-.02.03-.03.21.03.42-.13.63-.03.12.29.24.57.36.86.03.03.05.06.05.1.16.51.22,1.02.01,1.54-.21.51-.64.77-1.06,1.06-.06.04-.16.01-.25.02Z"/>
      <path class="cls-27" d="M32.15,23.67c.32.95-1.54,3.72-3.19,3.88,1.4-1.02,2.41-2.35,3.19-3.88Z"/>
      <path class="cls-116" d="M23.42,32.38c1.2.51,2.42.61,3.68.23.04-.01.08-.02.12-.03,0,.15,0,.29,0,.44-.79.35-1.62.37-2.45.19-.36-.08-.71-.18-1.06-.27-.11-.18-.21-.36-.28-.56Z"/>
      <path class="cls-102" d="M27.28,31.52c-1.34.84-2.72.96-4.15.2-.02-.03-.03-.06-.05-.09.05-.07.1-.03.16-.01,1.13.38,2.23.22,3.31-.19.24-.09.47-.21.71-.32.05-.02.09-.05.13.01-.03.14-.07.27-.1.41Z"/>
      <path class="cls-115" d="M15.39,21.47c-.36.89-.83,1.71-1.56,2.37.79-1.53,1.58-3.05,1.76-4.8.03-.08.07-.15.12-.28.06.96-.03,1.84-.32,2.71Z"/>
      <path class="cls-104" d="M30.35,32.03c.17-.02.34-.04.5-.06-.05.08,0,.15.04.2.62.69,1.11,1.48,1.62,2.26-.07.22-.3.2-.44.3h-.02c-.54-.92-1.08-1.84-1.71-2.71Z"/>
      <path class="cls-84" d="M20.17,13.45c.87.78,1.61,1.67,2.22,2.66-.05.15-.23.19-.31.32-.41-.98-1.08-1.78-1.86-2.49-.09-.08-.17-.18-.26-.27,0-.14.12-.17.22-.22Z"/>
      <path class="cls-40" d="M20.93,27.66c-.06,1.06-1.81,3.34-2.75,3.55,1.08-1.11,2.04-2.23,2.75-3.55Z"/>
      <path class="cls-92" d="M33.38,38.99c-.06.05-.04.12-.05.19-.02.3-.04.32-.33.21-.34-.12-.58-.33-.63-.71.16-.32.41-.47.76-.44.24.02.35.16.29.38-.03.12-.03.24-.04.37Z"/>
      <path class="cls-32" d="M32.08,34.74c.1-.18.32-.17.44-.3.82-.32,1.32-.94,1.62-1.75.03-.09.07-.18.11-.3.14.78-.56,1.81-1.53,2.3-.22,0-.42.16-.65.04Z"/>
      <path class="cls-92" d="M16.22,39.18c.04-.06.11-.03.16-.05.4.05.49.13.56.46,0,.23,0,.45,0,.68,0,.17-.05.22-.2.11-.32-.22-.51-.5-.51-.9,0-.1,0-.2,0-.3Z"/>
      <path class="cls-4" d="M27.22,34.95c-.86.46-1.94.46-2.44-.04.85.31,1.65.12,2.44-.21,0,.08,0,.17,0,.25Z"/>
      <path class="cls-24" d="M30.26,31.48c-.09.05-.18.1-.26.15-.47-.51-.95-1.01-1.34-1.58.18.08.33.24.55.27.01.14.14.2.22.29.27.3.59.55.84.87Z"/>
      <path class="cls-97" d="M33.13,35.66s-.05-.06-.05-.11c.42-.06.73-.31,1.03-.61-.08.38-.51.69-.98.71Z"/>
      <path class="cls-132" d="M17.64,11.24c-.03.16.16.18.19.3-.38-.17-.76-.34-1.15-.51-.03-.04-.08-.08-.05-.15.26.13.52.25.77.39.1.06.16.03.23-.04Z"/>
      <path class="cls-63" d="M6.83,22.8c-.17-.52-.34-1.03-.49-1.55-.26-.91-.43-1.84-.5-2.79.09-.03.16.03.23.07.67.43,1.35.85,1.9,1.44.22.23.41.48.58.76.04.08.11.15.06.25-.21.12-.21.34-.23.53-.1.78-.17,1.56-.07,2.35.03.24.05.48.1.72.02.08.04.17-.04.23-.52-.66-1.05-1.32-1.52-2.01Z"/>
      <path class="cls-93" d="M3.01,6.7c.1-.22.2-.45.31-.67.01-.02.05-.23.15-.04.05.21-.08.38-.1.58-.15.56-.28,1.13-.24,1.71.06.98.39,1.85,1.11,2.55.09.09.2.15.3.22.06.04.12.08.09.16-.02.06-.09.08-.14.08-.23.02-.46.09-.7.03-.44.02-.85.17-1.25.33-.16.06-.26.04-.38-.08-.53-.58-.72-1.27-.65-2.04.05-.53.18-1.04.34-1.54.27-.69.54-1.39.94-2.03.26-.42.55-.81.93-1.13-.34.56-.64,1.14-.87,1.74.04.11-.01.21-.05.32-.23.71-.36,1.43-.32,2.18.03.63.22,1.18.69,1.63.14.14.32.2.46.27-.24-.2-.38-.5-.5-.81-.42-1-.54-2.03-.27-3.1.03-.14.05-.28.17-.38Z"/>
      <path class="cls-89" d="M10.21,13.66c-.17.1-.18.29-.25.44-.19.41-.4.8-.88.94-.44.12-.87.09-1.31,0-.21-.04-.37-.18-.48-.34-.27-.4-.43-.85-.46-1.33.06-.09.15-.1.24-.12.3-.07.6-.15.86-.34.07-.06.14-.08.23-.01.47.36,1.03.42,1.59.45.1,0,.2,0,.3,0,.25.02.28.08.16.32Z"/>
      <path class="cls-57" d="M8.6,20.97c-.31-.64-.79-1.14-1.34-1.56-.45-.35-.93-.66-1.42-.95-.19-.15-.39-.29-.56-.45-.51-.47-.68-1.09-.75-1.75-.03-.25-.03-.5-.05-.75.23.14.39.36.57.57.17-.21.24-.47.49-.6.1.27.04.54.08.8.08.6.35,1.1.76,1.52.55.57,1.15,1.08,1.65,1.7.48.6.86,1.25.96,2.04-.13-.19-.25-.38-.38-.56Z"/>
      <path class="cls-94" d="M3.79,11.33c.26-.08.54-.07.86-.12-.85-.49-1.23-1.26-1.48-2.11-.25-.86-.11-1.71.14-2.55.08-.06.13-.04.18.04,0,.48-.09.96-.07,1.45.02.46.1.9.32,1.3.23.43.46.54.94.47.14-.02.28-.12.44-.05.13.12.06.22-.03.31-.24.23-.34.53-.37.85-.02.19.03.26.24.26.61,0,1.22-.02,1.83-.06.06-.03.09-.02.11.04-.03.04-.06.04-.1.02-.41-.02-.51.09-.49.53,0,.05-.02.1-.06.09-.17-.01-.33.11-.5,0-.13-.08-.17.04-.21.13-.03.07-.07.13-.14.1-.08-.03-.06-.09-.03-.16.06-.12-.05-.13-.13-.15-.16-.03-.3.03-.43.1-.09.09-.2.12-.32.07-.07-.16.13-.11.13-.21-.09-.02-.19.08-.29,0,0,0-.01-.02-.02-.03.03-.11.14-.11.21-.16.04-.03.13-.03.11-.11-.02-.06-.1-.06-.15-.05-.13,0-.26.05-.4.05-.07,0-.15.04-.21-.03-.02-.02-.05-.03-.07-.05Z"/>
      <path class="cls-95" d="M6.8,11.19s.06,0,.09-.01c.24-.02.44.1.63.22.01.02.02.05.03.07.04.19.14.35.28.49.12.12.26.23.29.42.04.31-.1.5-.38.63-.38.18-.78.24-1.19.3-.08.01-.17,0-.24-.06-.05-.18-.15-.36-.03-.56-.02-.57.31-1.01.52-1.51Z"/>
      <path class="cls-16" d="M6.34,13.24c.47.02.92-.1,1.35-.27.27-.11.41-.3.37-.6.09-.04.09.05.1.09.05.32.28.46.55.56.5.17,1.02.19,1.54.16.24-.01.42-.18.67-.2.24-.02.24-.06.51.12.01,0,.03.02.04.03.06.07.17.12.1.25-.04.06-.1.04-.24-.06.02.05.16.09.04.18-.28.09-.51.26-.78.38-.13.06-.25.13-.39.16-.07-.14.07-.26.02-.39,0-.08.01-.16.02-.25-.77.02-1.52-.02-2.2-.51-.31.31-.76.37-1.2.47q-.48.02-.36.47c.02.06.02.13.04.22-.5-.15-.94-.37-1.39-.6.05-.13.18-.17.24-.26.06-.12.14-.22.3-.14.15.1.31.16.5.16.05.03.12-.01.17.03Z"/>
      <path class="cls-108" d="M3.86,11.38c.23-.03.46-.05.69-.09.12-.02.16.03.19.14.03.14-.09.09-.14.12-.1.05-.2.08-.3.12-.31.05-.6.19-.9.29-.57.2-.36.26-.96-.19.45-.23.93-.32,1.41-.41Z"/>
      <path class="cls-76" d="M11.36,13.5c.03-.15-.12-.18-.17-.28.06-.04.08.03.12.05.07.04.15.17.23.08.08-.09-.1-.12-.11-.2,0,0,.02-.01.03-.02.05-.01.09,0,.15.03-.04-.08-.17-.11-.13-.23.2-.06.31.11.44.16-.09-.13-.36-.1-.39-.35.17-.08.27.09.4.11-.15-.14-.41-.14-.53-.35,0-.02,0-.05.02-.07.27,0,.46.23.72.26-.11-.05-.23-.08-.33-.15-.06-.04-.17-.05-.13-.17.26-.04.45.1.65.22.09.11.1.28.25.35-.08.25-.18.5-.25.75-.04.17-.1.14-.19.05-.14-.14-.27-.29-.42-.44-.07.1.04.13.05.19-.04.1-.1.14-.2.08-.07-.05-.14-.08-.23-.08Z"/>
      <path class="cls-78" d="M5.68,13.05c-.13-.01-.2.09-.3.14,0-.02,0-.05,0-.07,0-.06,0-.1-.07-.06-.15.08-.3.17-.42.3-.2.04-.29.22-.42.34-.07.06-.12.16-.17.24-.02-.02-.05-.04-.07-.07.11-.14.22-.27.33-.41.04-.05.13-.09.09-.16-.05-.07-.14-.04-.21-.01-.06.02-.12.05-.2.08.05-.14.2-.18.19-.32.26-.14.53-.27.76-.47.14-.19.23.06.35.04.15.09.19-.2.34-.1.01,0,.07-.06.09,0,.02.04,0,.09-.04.11-.03.02-.08.03-.11.05-.18.08-.27.19-.14.39Z"/>
      <path class="cls-96" d="M4.32,11.7c.1-.02.19-.04.29-.06.05,0,.12-.06.15.02.03.09-.04.11-.1.14-.06.03-.15,0-.19.09-.03.08-.1.1-.17.12-.28.08-.54.2-.82.29-.11,0-.22.1-.32-.02-.11-.08-.06-.12.04-.15.3-.11.6-.22.91-.34.08-.03.16-.03.22-.09Z"/>
      <path class="cls-43" d="M3.51,12.24c.32-.12.63-.23.95-.35.12.03.23-.04.34-.05.02.05.1.11-.01.15-.43.15-.86.29-1.29.44-.04.01-.09-.03-.14-.04-.04-.14.1-.1.15-.15Z"/>
      <path class="cls-75" d="M3.62,12.55c.41-.22.84-.4,1.32-.43-.44.15-.84.4-1.32.43Z"/>
      <path class="cls-106" d="M4.97,12.39c-.3.04-.56.2-.84.3-.09.03-.19.11-.33,0,.39-.21.78-.33,1.17-.44.02,0,.05.01.06.03.02.06-.07.06-.07.12h0Z"/>
      <path class="cls-80" d="M4.95,12.59c-.2.09-.39.18-.59.27-.1.05-.19.06-.29-.03.21-.14.44-.21.66-.29.09-.03.2-.03.24-.15h0c.06,0,.13.02.19.02,0,.15-.11.15-.21.17Z"/>
      <path class="cls-88" d="M5.21,12.59c-.25.18-.46.42-.79.44-.07-.08,0-.11.06-.14.18-.09.36-.17.54-.26.11-.14.14-.14.2-.04Z"/>
      <path class="cls-94" d="M6.34,13.24c-.06,0-.12,0-.17-.03-.19-.2-.15-.38.11-.51.02.18.04.36.06.54Z"/>
      <path class="cls-111" d="M4.89,13.35c.05-.14.43-.44.55-.43.02,0,.06.02.06.03.01.09-.08.11-.13.16-.16.08-.26.31-.49.24Z"/>
      <path class="cls-62" d="M3.51,12.24c-.02.08-.15.05-.15.15-.36.04-.64.28-.98.38.23-.21.55-.28.78-.49.13.05.23-.07.36-.04Z"/>
      <path class="cls-94" d="M5.21,12.59c-.09-.1-.13.05-.2.04-.02-.02-.05-.03-.07-.05.07-.06.14-.12.21-.17.2-.09.32-.02.37.19-.04.1-.09.07-.14,0-.05-.07-.11-.08-.17-.01Z"/>
      <path class="cls-56" d="M11.43,12.46s0,.03,0,.04c-.03.03-.06.04-.1.06-.03.01-.06.04-.07.07,0,.09.12.13.07.23-.03.02-.08,0-.09.02-.03.04.03.04.04.05.06.07.18.09.14.22h0c-.18-.03-.28-.24-.48-.25,0,.12.12.14.2.3-.24-.26-.41-.13-.61-.05-.48.2-.97.11-1.46.03-.08-.01-.16-.04-.24-.06-.41-.1-.73-.29-.78-.76-.06-.17-.2-.29-.32-.41-.13-.13-.22-.29-.24-.48.21.08.29.31.48.41.06.04.12.02.17-.01.21-.11.34-.28.46-.47.29-.12.58-.25.88-.36.42.08.85.08,1.28.07.22,0,.44,0,.65.03.21.03.27-.04.22-.24-.05-.27-.19-.5-.37-.71-.07-.08-.14-.14-.21-.22-.03-.03-.04-.07-.05-.11-.05-.18.07-.16.17-.13.09.03.18.09.26.15.36.25.75.24,1.15.15.11-.13.29-.11.42-.21.59-.43,1.02-.93.98-1.73-.02-.43-.05-.85-.14-1.27-.02-.09-.08-.19,0-.28.08,0,.16,0,.24,0,.09,0,.11.07.13.13.4,1.28.37,2.51-.47,3.64-.21.28-.47.5-.8.63-.31.12-.61.28-.93.39q-.23.11-.1.33c-.12.04-.23.11-.17.26.04.1-.14.17-.03.28-.05.08-.19.04-.2.16-.03.05-.1.05-.11.11Z"/>
      <path class="cls-23" d="M11.99,11.29c.29-.13.58-.28.88-.39.44-.16.75-.47.99-.85.54-.84.67-1.75.47-2.72-.05-.27-.1-.54-.23-.79.11-.11-.02-.23.03-.37.07.12.12.23.18.34.1.05.13.15.17.24.45,1.38.31,2.7-.43,3.95-.11.18-.25.34-.41.43.96-.16,1.42-1.04,1.45-1.93.03-.83-.11-1.64-.41-2.42-.03-.07-.07-.14-.02-.22-.21-.58-.53-1.11-.87-1.67.42.16,1.07,1.12,1.67,2.44.27.66.49,1.33.6,2.04.19,1.24-.52,2.32-1.74,2.62-.11-.06-.23-.11-.34-.17-.13-.09-.28-.12-.43-.14-.05-.01-.09-.03-.14-.06-.38-.12-.77-.2-1.16-.24-.08-.04-.2,0-.25-.1Z"/>
      <path class="cls-31" d="M10.1,2.89c.33-.02.59.13.82.34.29.26.48.6.62.96.03.08.07.17.11.27.09-.21.08-.41.05-.62.58.57.83,1.68.53,2.41-.04.09-.1.17-.15.26-.27.18-.57.12-.85.09-.4-.06-.75,0-1,.34-.03.04-.07.07-.13.07-.05-.44-.05-.88-.19-1.31-.09-.28-.25-.54-.31-.84.17-.05.27.08.36.18.24.26.44.56.51.91.03.16.1.19.24.18.13-.01.26-.05.41-.06-.24,0-.27-.2-.32-.36-.17-.5-.5-.84-1.03-.97-.09-.02-.18-.03-.24-.12.03-.26-.08-.5-.15-.74.25-.07.48.04.7.13.24.09.45.25.67.42-.24-.54-.67-.81-1.18-.98-.09-.03-.2-.04-.26-.14.03-.17-.04-.35.04-.52.22-.07.4.04.57.13.07.04.14.1.18-.04Z"/>
      <path class="cls-29" d="M13.86,6.54c.15.61.23,1.23.2,1.87-.04.7-.76,1.52-1.46,1.62-.19-.02-.38-.03-.57-.06-.38-.08-.65-.3-.82-.67.18.02.3.13.47.14.58.02,1-.28,1.31-.72.64-.88.58-1.84.22-2.81-.15-.41-.38-.78-.59-1.16.61.47,1.02,1.07,1.24,1.79Z"/>
      <path class="cls-121" d="M5.42,4.12c.15-.35.39-.64.67-.89.05-.04.08-.14.18-.07.02.06-.02.11-.02.21.41-.4.9-.55,1.43-.62.04,0,.08-.03.1.03-.02.16-.04.32-.05.49-.05.14-.17.11-.27.13-.54.1-1.04.28-1.45.65-.15.14-.28.29-.4.51.52-.37,1.05-.61,1.64-.71.11-.02.23-.07.33.04-.19.21-.26.48-.39.73-.02.07-.08.08-.14.09-.6.13-.97.52-1.17,1.09-.04.1-.07.24-.24.2-.28-.6-.58-1.2-.22-1.87Z"/>
      <path class="cls-123" d="M7.58,3.88c-.77.05-1.44.32-2.08.85.08-.34.25-.55.46-.73.45-.4.98-.59,1.57-.68.07-.01.15-.01.22-.06.24-.06.48-.12.64-.34.08-.11.16-.05.23.01.2.18.42.33.69.37.53.13,1.01.34,1.34.81.09.13.18.26.18.47-.43-.39-.91-.63-1.46-.7-.03,0-.07-.01-.1-.02-.35,0-.7-.02-.84-.52-.18.43-.5.5-.85.53Z"/>
      <path class="cls-119" d="M14.65,6.57c.42.95.59,1.93.47,2.96-.1.82-.66,1.62-1.68,1.69.75-.53.98-1.33,1.15-2.15.18-.88.06-1.73-.28-2.56.12,0,.22.1.34.06Z"/>
      <path class="cls-81" d="M8,11.94c-.23-.08-.37-.27-.5-.46,0-.02,0-.03,0-.05-.02-.21-.15-.34-.3-.46-.2-.1-.43-.17-.47-.44,0-.04.01-.08.05-.1.42-.08.84-.07,1.26.05.09.02.18,0,.27-.03.48-.12.94-.12,1.34.23.02.02.03.04.03.07,0,.09-.02.18-.13.21-.08,0-.17,0-.25,0-.34,0-.59.14-.69.49-.05.26-.26.38-.46.49-.15-.21-.03-.45-.08-.65-.04.2.06.44-.08.65Z"/>
      <path class="cls-125" d="M8.1,1.6s0-.03,0-.04c.05-.05.12-.09.14-.14.08-.34.35-.35.61-.39.09-.01.09.03.1.09.11.56.22.65.79.7.48.04.96.06,1.41.24.38.15.71.37.95.73-.05,0-.08.02-.09.01-.68-.42-1.43-.49-2.21-.49-.41,0-.82.03-1.19-.23-.12-.09-.19.1-.31.11-.07-.2-.12-.4-.2-.59Z"/>
      <path class="cls-91" d="M8.1,1.6c.2.15.23.36.2.59-.1.04-.2.08-.3.12-.66-.02-1.32,0-1.98.14-.32.07-.57.26-.91.42.11-.24.27-.36.42-.48.51-.4,1.13-.49,1.74-.6.28-.05.56-.08.83-.2Z"/>
      <path class="cls-54" d="M7.09,4.87c-.17.41-.37.8-.44,1.24-.05.31,0,.63-.1.94-.03,0-.06,0-.07-.02-.25-.38-.63-.47-1.05-.48-.03,0-.07-.01-.09-.03-.05-.05-.02-.09.03-.11.11-.04.13-.13.14-.23.12-.15.29-.1.44-.09.11,0,.15-.02.18-.13.12-.38.33-.71.64-.97.09-.07.18-.15.31-.12Z"/>
      <path class="cls-68" d="M10.11,7.01c.24-.44.63-.55,1.1-.49.29.04.58.04.87-.01-.03.04-.07.08-.1.12-.3.13-.48.32-.48.69,0,.22-.23.35-.44.43-.08.03-.16.05-.24.05-.34,0-.51.21-.59.51-.04.11.05.21.03.33-.17-.23-.25-.47-.31-.76-.06.22-.11.4-.15.58.06-.49.15-.98.31-1.45Z"/>
      <path class="cls-85" d="M5.33,6.49c.12,0,.25.02.37.02.4,0,.67.21.86.54.21.44.14.87-.02,1.3-.04.04-.07.09-.12.14-.06-.09.03-.16,0-.24-.12-.3-.32-.42-.66-.48-.56-.09-.74-.61-.51-.96-.04-.06-.13-.03-.18-.09-.15-.07-.29-.15-.3-.34.19-.03.38,0,.56.09Z"/>
      <path class="cls-66" d="M9.52,4.62c.75.11,1.22.51,1.38,1.26.02.09.07.1.14.11.1.01.21,0,.33.13-.32.04-.59.08-.87.11-.1,0-.06-.09-.08-.15-.1-.52-.34-.94-.82-1.2-.04-.03-.08-.05-.13-.08-.04-.03-.11-.04-.1-.1,0-.08.09-.05.14-.07Z"/>
      <path class="cls-59" d="M7.09,4.87c-.49.21-.71.66-.93,1.1-.02.04,0,.05.02.08.09.13.01.13-.09.11-.19-.02-.38-.04-.57.02-.04.04-.08.06-.13.05-.06,0-.12-.02-.13-.09,0-.06.04-.09.08-.11.11-.05.22-.09.34-.06.15-.08.15-.25.21-.38.25-.58.69-.9,1.31-.99.07.01.14.02.22.03-.05.17-.25.11-.32.23Z"/>
      <path class="cls-126" d="M12.5,5.72c.38.71.39,1.96-.36,2.6-.32.28-.7.33-1.19.27,1.07-.14,1.46-.83,1.61-1.72.06-.38-.05-.76-.06-1.15Z"/>
      <path class="cls-26" d="M9.09,5.77c-.3-.25-.43-.49-.7-1.19,0,.15,0,.3,0,.45,0,.15-.03.3-.06.47-.14-.46-.12-.73.09-1.25.36.38.44.55.67,1.51Z"/>
      <path class="cls-117" d="M10.22,8.31c0-.38.14-.53.51-.57.62-.06.89-.43.71-.97.19-.03.39-.01.54-.15-.21.15-.26.36-.29.6-.05.39-.35.55-.69.63-.3.08-.6.17-.78.45Z"/>
      <path class="cls-53" d="M7.78,5.49c-.14-.41-.04-.68.45-1.24-.02.45-.18.85-.45,1.24Z"/>
      <path class="cls-72" d="M7.79,2.77c-.63.04-1.15.32-1.65.75.02-.17.06-.27.14-.36.41-.39.95-.36,1.45-.45.04,0,.08,0,.11.04-.02,0-.03.01-.05.02Z"/>
      <path class="cls-10" d="M9.66,10.74s0-.04,0-.06c.41-.35.81-.69,1.36-.81.02.02.04.04.06.06,0,.04,0,.07-.04.08-.4.14-.7.43-1.05.64-.1.06-.18.16-.32.09Z"/>
      <path class="cls-20" d="M10.1,2.89c.03.07.09.12.06.24-.27-.14-.52-.31-.82-.34-.08-.07-.22,0-.3-.14.28.02.54.04.8.07.11.01.2.07.26.17Z"/>
      <path class="cls-55" d="M5.12,9.76c-.1.03-.2.08-.31.1-.64.14-.9,0-1.18-.58-.31-.65-.32-1.34-.25-2.04.02-.21.01-.43.08-.64-.01-.24.06-.46.2-.66.25-.45.53-.89.93-1.22-.18.38-.4.73-.54,1.13-.34.97-.36,1.92.12,2.85.28.54.69.67,1.24.42.09-.04.18-.09.32-.15-.11.38-.38.58-.62.8Z"/>
      <path class="cls-101" d="M3.01,6.7c-.32,1-.33,2.01,0,3.02.17.52.35,1.04.82,1.38-.8-.1-1.26-.88-1.37-1.58-.16-1.01.02-1.98.39-2.93.06.03.13.04.17.11Z"/>
      <path class="cls-15" d="M5.68,5.98c-.13.05-.26.09-.41.15.08.09.18.03.26.06.15.24-.06.25-.2.3-.2.04-.38,0-.56-.09-.26-.89,0-1.64.65-2.28-.21.66.02,1.26.26,1.86Z"/>
      <path class="cls-127" d="M5.51,8.52c-.47-.08-.81-.29-1.03-.68-.31-.56-.34-1.36-.09-1.75-.01.97.06,1.9,1.11,2.43Z"/>
      <path class="cls-90" d="M5.07,6.74c.06,0,.12,0,.18,0,0,0,.01,0,.02.01.03.03,0,.06,0,.09-.16.5.11.88.64.92.38.03.46.11.51.5-.23-.31-.59-.37-.9-.52-.35-.16-.48-.44-.39-.81.02-.08,0-.14-.05-.2Z"/>
      <path class="cls-12" d="M6.74,10.53c.12.19.31.31.5.41-.23.12-.43-.05-.65-.05-.48-.26-.78-.75-1.31-.99.19-.05.3.04.4.11.21.14.43.29.6.49.16.19.29.24.46.03Z"/>
      <path class="cls-30" d="M6.59,10.88c.12-.12.24,0,.37,0,.1,0,.19.03.29.05.17.12.36.24.26.5-.2-.08-.41-.17-.61-.25-.03-.02-.07-.03-.11-.05-.07-.08-.13-.17-.2-.25Z"/>
      <path class="cls-5" d="M3.66,5.94c-.07.22-.13.44-.2.66-.03-.06-.09-.06-.15-.05.05-.19.1-.37.15-.56.07-.02.13-.04.2-.05Z"/>
      <path class="cls-52" d="M13.45,11.59s.05.03.07.05c.17.04.34.1.51.15.07.1.26.05.28.21-.23.07-.44.23-.71.17-.16.02-.28-.07-.42-.12-.16-.06-.32-.15-.49-.16-.26-.08-.54-.07-.76-.26-.05-.09-.24,0-.22-.14.02-.13.15-.19.28-.21.06.06.13-.02.19.02.42.11.85.18,1.27.28Z"/>
      <path class="cls-109" d="M11.93,11.64c.25.07.5.13.76.2.26.08.51.2.76.3.06.02.19.05.05.15-.25.03-.49.26-.76,0-.03.15.15.1.11.2-.19.07-.37,0-.55-.06-.19-.06-.42-.06-.56-.25-.04-.08-.18-.02-.19-.15.03-.08.13-.03.19-.07-.02-.06-.14-.02-.11-.12q.07-.22.3-.22Z"/>
      <path class="cls-70" d="M12.28,12.38c.19.04.38.08.57.12-.11.13-.28.24-.25.45-.22.01-.23-.15-.25-.3.02-.04.09-.08.01-.14-.04-.03-.1-.06-.07-.13Z"/>
      <path class="cls-114" d="M13.49,12.29c.09-.13-.06-.11-.1-.13-.23-.13-.49-.17-.71-.32.34.03.62.21.92.34,0,.07-.02.12-.11.11Z"/>
      <path class="cls-64" d="M12.28,12.38c.03.11.16.1.22.17-.03.07-.1.08-.16.09-.21-.11-.42-.22-.66-.25-.07.05-.1.02-.13-.04-.01-.06-.13-.06-.1-.15.09-.04.19,0,.29,0,.18.06.36.12.54.18Z"/>
      <path class="cls-39" d="M11.55,12.35s.09.03.13.04c.09.12.24.13.36.19.09.04.18.08.24.23-.34-.07-.59-.25-.86-.36-.01-.03-.05-.06-.04-.08.04-.08.11,0,.16-.03Z"/>
      <path class="cls-60" d="M11.28,12.5s.1,0,.15,0c.21.18.5.23.74.46-.29.03-.43-.21-.64-.21h-.04c-.11-.05-.23-.1-.21-.25Z"/>
      <path class="cls-99" d="M11.34,12.85s-.09-.09-.14-.14c-.07-.06-.05-.09.03-.12.13,0,.18.14.31.15h0c.09.19.36.16.44.38-.2.02-.31-.18-.49-.18-.09.03-.12-.03-.14-.1Z"/>
      <path class="cls-112" d="M11.34,12.85s.09.06.14.1c.06.13.25.13.28.28-.14.09-.21-.1-.33-.08-.08-.16-.3-.18-.36-.37.11-.04.18.09.27.07Z"/>
      <path class="cls-135" d="M5.37,12.74c-.21.21-.41.32-.61.45-.05.03-.11.03-.14-.02-.04-.06.02-.1.06-.12.21-.09.37-.3.68-.31Z"/>
      <path class="cls-18" d="M9.66,10.74c.28-.1.5-.29.74-.46.21-.15.43-.28.68-.35.37.29.62.65.66,1.14,0,.11,0,.18-.14.17-.66-.07-1.33,0-1.99-.1-.05,0-.09-.03-.14-.05-.05-.1.02-.13.1-.15.03-.07.07-.13.1-.2Z"/>
      <path class="cls-7" d="M9.57,10.94c-.03.05-.06.1-.1.15-.26.17-.56.26-.85.35,0-.29.1-.45.37-.51.19-.04.39-.11.58,0Z"/>
      <path class="cls-44" d="M8,11.94c0-.24,0-.49,0-.73,0-.06,0-.15.09-.15.08,0,.05.09.06.14,0,.24,0,.49,0,.73-.05.06-.1.08-.15,0Z"/>
      <path class="cls-76" d="M11.53,12.75c-.14.04-.22-.07-.31-.15,0-.04,0-.08.05-.1.03.14.18.16.25.25Z"/>
      <path class="cls-67" d="M13.45,11.59c-.44-.03-.86-.13-1.27-.28.43.06.86.11,1.27.28Z"/>
      <path class="cls-133" d="M14.03,11.79c-.19,0-.35-.07-.51-.15.19,0,.35.06.51.15Z"/>
      <path class="cls-2" d="M14.12,11.3c-.11.08-.22.14-.38.12.13-.09.25-.11.38-.12Z"/>
      <path class="cls-50" d="M12.39,9.49c-.21.07-.42.23-.71.05.26-.02.49,0,.71-.05Z"/>
      <path class="cls-51" d="M10.87,6.59c.29,0,.52.24.51.54,0,.29-.27.53-.56.52-.26,0-.51-.29-.5-.56,0-.27.27-.5.56-.5Z"/>
      <path class="cls-9" d="M5.83,6.64c.28,0,.54.24.54.49,0,.24-.27.51-.51.5-.27,0-.54-.28-.53-.54,0-.26.23-.46.5-.46Z"/>
      <path class="cls-14" d="M10.83,6.89c.12,0,.18.06.19.17,0,.11-.06.15-.16.15-.11,0-.18-.05-.18-.16,0-.1.06-.15.16-.15Z"/>
      <path class="cls-73" d="M6.08,7.04c0,.15-.07.21-.2.22-.11,0-.19-.04-.18-.15,0-.12.09-.19.21-.21.12-.01.16.06.18.14Z"/>
    </g>
  </g>
</svg>